<?xml version="1.0" encoding="UTF-8"?>
<svg id="Layer_1" data-name="Layer 1" xmlns="http://www.w3.org/2000/svg" viewBox="0 0 260.71 88.46">
  <defs>
    <style>
      .cls-1 {
        fill: #c20000;
      }
    </style>
  </defs>
  <path class="cls-1" d="m0,0h2.9v1.35c0,28.5,0,57,0,85.5q0,1.55-1.58,1.55c-.44,0-.88.02-1.33.03C0,58.96,0,29.48,0,0Z"/>
  <path class="cls-1" d="m67.61,88.19h-3.28v-21.71c-.07-.02-.14-.04-.21-.05-.58,1.47-1.18,2.92-1.73,4.4-1.88,4.97-3.75,9.95-5.62,14.92-.03.09-.08.18-.11.27-.79,2.29-.79,2.31-3.24,2.18-.29-.02-.72-.33-.82-.6-2.2-5.74-4.37-11.49-6.53-17.24-.48-1.28-.9-2.58-1.46-3.84v21.64h-3.29v-26.24h4.78c2.69,7.19,5.4,14.42,8.11,21.64.1,0,.2,0,.3,0,2.72-7.21,5.45-14.43,8.18-21.67h4.93v26.28Z"/>
  <path class="cls-1" d="m16.62,28.24c.3-.04.6-.08.96-.13-1-2.09.28-3.52,1.5-4.96.98-1.16,2.04-2.25,2.96-3.45.31-.41.41-1.06.43-1.6.02-.86-.64-1.34-1.48-1.12-.17.05-.39.42-.36.61.16,1.05.02,1.96-.99,2.51-1.38.75-2.77,1.46-4.16,2.18-.07-.08-.14-.16-.21-.24.42-.4.82-.83,1.27-1.2.47-.38,1-.71,1.39-1.24-.41.15-.82.3-1.25.45.43-.91.83-1.75,1.24-2.59.26-.54.67-.73,1.28-.76.74-.03,1.48-.32,2.22-.36,1.31-.06,2.29,1.15,1.77,2.36-.51,1.2-1.3,2.3-2.09,3.34-.75,1-1.71,1.83-2.48,2.82-.34.44-.46,1.07-.6,1.63-.17.7.11,1.46.73,1.58.59.12,1.52-.08,1.9-.5,1.03-1.14,1.81-2.48,2.74-3.71,1.81-2.41,2.71-5.22,3.48-8.11-.41.62-.81,1.24-1.22,1.87-.12-.04-.24-.08-.36-.12.15-1.32.31-2.65.46-3.97-.06-.02-.12-.03-.19-.05-.28.96-.56,1.93-.89,3.08-1.08-1.87-.17-3.35.44-5.02-.93.56-.54,1.87-1.79,1.95.24-1.03.46-1.97.69-2.94-.27-.31-.62-.72-1.05-1.21,2.87-1.73,5.66-3.3,9.1-3.48v1.7c.52.24.98.46,1.67.79-.6.13-.97.21-1.34.29.07-.07.14-.14.21-.21.67.87,1.34,1.75,2.01,2.62-.11.04-.45.15-.78.26.42.53.87,1.09,1.4,1.76-.4.1-.71.18-.83.21.36,1.22.73,2.47,1.1,3.71.21-.02.5-.04.74-.05-.75,1.18-1.49,2.35-2.28,3.58-.44-.31-.97-.68-1.5-1.05-.05.07-.09.13-.14.2.72.79,1.4,1.63,2.18,2.36,1.42,1.33,1.65,3.19,2.26,4.88.06.18-.29.5-.53.89-.24-.55-.37-.84-.52-1.18-.34.47-.59.8-.83,1.13-.16-.17-.31-.33-.49-.52h-1.2c.05-.42.09-.71.13-1.01.04-.31.05-.63.16-.92.12-.31.34-.59.52-.88-.31.06-.63.12-1.02.19-.03-.18-.08-.43-.14-.74-.73.34-1.09.11-.99-.51-1.12.13-2.24.26-3.35.39-.03.09-.05.17-.08.26.7.51,1.41,1,2.11,1.52,1.38,1.01,1.38,2.58.02,3.63-1.44,1.11-1.46,1.2-.19,2.5.42.43.94.77,1.41,1.17.48.41.93.46,1.53.17.91-.45,2.04.01,2.41.91.08.2.01.45.01.69-.46-.17-.76-.28-.96-.35-.26.51-.47.91-.65,1.25-.39-.26-.72-.62-.87-.56-.92.39-1.53.03-2.08-.67-.08-.1-.2-.15-.41-.3-.08.35-.14.61-.28,1.25-.59-.92-1.03-1.6-1.51-2.34-.07.19-.16.45-.36.98-.63-1.21-1.16-2.21-1.69-3.21,1.77-1.41,1.75-3.17-.08-4.14-.04.97.07,1.93-.16,2.81-.51,1.93-1.96,3.16-3.72,3.85-2.27.88-2.53,1.72-1.44,4.07.44.95,1.01,1.06,1.95.68.45-.18,1.02-.09,1.53-.03.3.04.58.25.97.43-.01.28-.03.62-.05,1.05-.41-.29-.7-.49-1.07-.74-.03.61-.06,1.06-.07,1.31-1.47.3-2.75.59-4.05.81-.18.03-.6-.27-.6-.42-.01-.39.15-.78.27-1.32-.31.04-.69.08-1.28.15.09-.79.18-1.67.29-2.73-.34.46-.57.77-.87,1.18-.41-1.24-.61-2.33.24-3.35.02-.03.06-.06.06-.08-.19-1.27.73-1.12,1.52-1.37.48-.15.92-.87,1.1-1.42.56-1.71.99-3.47,1.44-5.1-.51.61-1.23,1.29-1.74,2.1-1.02,1.63-1.33,1.83-3.35,1.5.48-.24.86-.43,1.23-.61-.87-.32-1.83-.2-2.4-1.05h-.02Zm13.54-18.28c-1-.69-1.78.19-2.67.34-.16.03-.23.52-.27.61.6.14,1.1.25,1.7.38-.11.42-.34.81-.25,1.1.14.46.44.93.81,1.25.12.1.85-.18.93-.42.18-.52.19-1.13-.55-1.39-.68-.24-.98-.59-.25-1.17.07-.05-.08-.38-.13-.6.23-.04.45-.07.68-.11Zm-1.44-1.71c1.07.9,1.35.76,1.65-.82-.6.3-1.1.55-1.65.82Zm-3.28,1.16c.01.09.03.19.04.28.47.09.94.24,1.4.21.14,0,.25-.51.51-1.08-.86.26-1.4.42-1.95.58Z"/>
  <path class="cls-1" d="m99.19,76.91h-8.11v-2.83h11.32v13.54c-.57,0-1.21.04-1.83-.02-.2-.02-.47-.3-.54-.51-.25-.77-.43-1.56-.67-2.45-.82.67-1.5,1.31-2.26,1.84-2.79,1.98-5.93,2.2-9.1,1.45-5.13-1.21-8.33-5.59-9.07-10.54-.51-3.43-.03-6.7,1.47-9.77,1.66-3.42,4.39-5.57,8.23-6.14,3.73-.55,7.31-.19,10.35,2.28,1.8,1.47,2.78,3.46,3.1,5.83h-3.46c-.54-2.64-2.19-4.33-4.78-5.05-3.96-1.11-8.59.17-10.42,4.52-1.76,4.18-1.78,8.29.45,12.28,1.39,2.49,4.95,4.6,8.27,3.89,1.62-.35,3.13-.71,4.39-1.8,1.98-1.7,2.87-3.86,2.66-6.52Z"/>
  <path class="cls-1" d="m15.39,61.91h3.39v11.15h14.01v-11.12h3.53c.02.27.05.56.05.85,0,8.17-.02,16.33.03,24.5,0,.98-.31,1.26-1.23,1.17-.74-.07-1.49-.01-2.32-.01v-12.23h-13.99v11.97h-3.46v-26.27Z"/>
  <path class="cls-1" d="m200.18,72.43c2.37-3.14,5.86-3.33,9.02-2.33,1.63.52,2.61,1.81,2.67,3.6.14,4.81.23,9.61.35,14.49h-3.13c0-3.74.01-7.51-.01-11.28,0-.83-.05-1.69-.27-2.48-.27-.98-.82-1.77-1.98-1.98-2.58-.47-4.82-.05-5.79,2.6-.25.67-.25,1.45-.26,2.18-.03,3.3-.01,6.6-.01,9.9v1.05h-3.02c0-.35,0-.71,0-1.07,0-3.67.02-7.35,0-11.02-.01-2.01-1.03-3.52-2.48-3.81-2.46-.5-4.87.89-5.65,3.29-.16.5-.2,1.05-.21,1.58-.02,3.47,0,6.94,0,10.41,0,.2,0,.39,0,.67h-3v-18.25h2.79v2.44c1.67-1.87,3.4-2.83,5.71-2.81,2.29.03,4.21.47,5.29,2.83Z"/>
  <path class="cls-1" d="m36.42,43.73c5.08,1.76,10.17,1.48,15.33-.21-.48-.28-.97-.55-1.45-.83-1.21-.72-1.37-1.37-.67-2.58.32-.55.61-1.11.87-1.68.88-1.92,2.51-2.27,4.09-1.7,1.68.6,3.2,1.63,4.8,2.47,1.83.96,3.64,1.97,5.5,2.86.54.26,1.23.22,2.08.34-1.68.63-2.54,2.59-4.49,2.28-1.07-.17-2.11-.7-3.08-1.23-1.99-1.08-3.93-2.26-5.89-3.38-.1-.06-.26-.03-.52-.06.32.43.73.75.79,1.13.11.65.11,1.37-.04,2.01-.18.76-.63,1.44-.86,2.19-.55,1.8-1.71,2.9-3.57,3.04-2.52.2-5.04.42-7.56.38-1.71-.03-3.53-.13-5.01-1.21-.56-.41-.99-1.08-1.33-1.72-.33-.62-.37-1.41-.7-2.02-.75-1.37-1-2.62.71-3.85-2.04.36-3.38,1.37-4.79,2.26-1.09.69-2.14,1.44-3.29,2.01-1.72.86-2.71.7-4.1-.5-.63-.55-1.35-1-1.99-1.54,2.05.43,3.63-.66,5.21-1.56,1.64-.93,3.15-2.09,4.79-3.04,1.46-.85,3.02-1.42,4.76-.82.22.07.51.15.6.31.77,1.29,1.59,2.56,2.22,3.92.36.77-.43,1.14-.98,1.48-.5.32-1.02.6-1.53.9.03.11.07.22.1.34Z"/>
  <path class="cls-1" d="m67.27,23.88c.21.27.64.72.58.79-.26.35-.66.59-1.09.94.63,1.03,1.37,2.24,2.12,3.45.45.72,1.22.75,1.8.46.69-.35,1.17-1.11.8-1.92-.39-.85-.93-1.67-1.54-2.39-.96-1.14-2.33-1.96-2.73-3.55-.28-1.13-.26-2.24.62-3.07.82-.76,1.83-.88,2.87-.37.2.1.45.11.67.15.72.1,1.09.51,1.23,1.23.12.59.36,1.16.57,1.79-.15.01-.45.04-.85.07.78.61,1.49,1.17,2.2,1.73-.08.12-.16.23-.24.35-1.22-.64-2.48-1.21-3.64-1.95-.79-.51-1.1-1.36-.7-2.33.26-.64-.09-.77-.61-.68-1.04.17-1.88,1.6-1.58,2.64.43,1.46,1.52,2.4,2.64,3.33,1.33,1.1,2.38,2.99,1.39,4.95.19.08.38.15.55.22.07.7-1.02,1-2.78.67.6.37.99.6,1.54.94-1.77.66-2.25.07-2.79-1.24-.24-.58-.44-1.18-.65-1.77-.15,0-.3,0-.45,0-.24,1.22-.6,2.44-.66,3.67-.04.71.74,1.02,1.7.94.06.87.09,1.74.2,2.61.01.12.39.19.6.29-.06.32-.11.66-.19,1.08.74.06,1.22.04,1.32-.85.06-.55.21-1.07.21-1.65,0-.86.94-1.41,1.8-1.2.95.23,1.46,1.05,1.16,1.86-.32.88-1.21,1.25-2.09.87-.18-.08-.37-.13-.5-.18-.24.46-.36,1.03-.72,1.33-.34.28-.92.27-1.43.4q-.31,1.47-1.54,1.36c.06.64.84,1.5-.36,1.8-.65.16-1.35.15-2.2-.01.81-1.04,1.63-2.09,2.44-3.13-.07-.07-.13-.14-.2-.21-.65.57-1.36.71-1.96.09-.22-.22-.3-.98-.24-1.01.51-.21,1.09-.46,1.6-.38.32.06.55.66.94,1.17-.06-1.08-.12-2.13-.18-3.17-2.3-.13-4.8-2.57-4.53-4.81-.69.33-1.39.47-1.75.89-.68.79-.27,1.62.49,2.43-1.8.76-3.44,1.52-5.14,2.13-.38.14-.95-.26-1.29-.37-.16.48-.18,1.06-.41,1.16-.53.22-1.15.2-1.73.28.11-2.21,1.66-2.17,3.02-2.45.87-.18,1.75-.4,2.55-.75,1.23-.54,1.31-.96.3-1.85-1.2-1.06-.97-3.69,1.05-4.11.74-.16,1.49-.29,2.23-.43.09-.02.18-.05.59-.17-.81-.56-1.4-1.04-2.06-1.41-.87-.5-1.79-.92-2.88-1.47-.38.27-1.11.9-1.74-.13-.19-.31-.3-.94-.12-1.18.48-.66,1.13-.35,1.7,0-.04-.55-1.64-.86-3.74-.65.69.96,1.32,1.84,1.74,2.43.89.45,1.52.76,2.13,1.07-.26.58-.42.92-.55,1.21-2.74-.49-3.17-3.07-4.38-4.94.45-1.37,1.61-1.03,2.77-1.09-1.04-1.26-1.66-2.75-3.55-2.8.94-1.32,1.6-1.38,2.6-.56.35.29.87.46,1.33.49.63.04.92.22.94.89.01.35.26.68.52,1.3.39-.83.65-1.38.91-1.92.26-.54.53-1.09.74-1.53,2.15,1.26,4.33,2.55,6.5,3.83-1.7,1.6-1.45,2.19.42,4.58.8-1.05,1.31-1.09,1.74-.16-.37-.01-.74-.03-1.1-.04.02.2-.03.51.08.59.32.24.7.4,1.06.58.07-.08.14-.17.21-.25-.09-.3-.18-.61-.27-.91Zm4.73,9.82c-.71-.2-1.24.21-1.17.87.04.41.61,1.03,1.02,1.1.55.1,1.17-.26,1.17-1.04,0-.62-.23-1.05-1.01-.93Zm-7.61-2c.24-.58.42-1,.6-1.42-.27-.09-.66-.33-.78-.23-.46.38-.59.88.19,1.66Zm.44,5.11c.42.56.91.72,1.46.19.09-.09.03-.54-.04-.56-.52-.16-1.15-.61-1.42.37Zm2.22-8.88c-.46-.32-.73-.6-.83-.55-.29.15-.55.41-.75.67-.03.04.32.52.43.49.31-.07.59-.3,1.15-.61Zm-9.67-5.37c-.51-.33-.78-.6-1.11-.69-.17-.04-.42.27-.63.41.27.26.5.58.81.74.14.07.45-.21.93-.46Z"/>
  <path class="cls-1" d="m40.5,10.01c.02.22.05.44.08.75.32-.52.56-.9.79-1.29.17.12.33.24.5.36.02.35.04.7.06,1.01-.31.05-.57.09-.83.13.15.23.25.54.46.67.81.49,1.73.08,2.26-1.11-.44.18-.74.3-1.06.43v-1.27c.33.11.65.21.97.32.03-.05.07-.1.1-.15-.27-.32-.54-.63-.91-1.07.45,0,.77,0,1.09,0,.34,0,.68,0,1.12,0-.25.4-.47.75-.76,1.21.38-.1.62-.16.97-.25.02.41.04.76.06,1.16-.33-.11-.63-.21-1.03-.34.42.98,1.6,1.45,2.35,1.01.16-.09.2-.38.3-.58-.22-.06-.44-.11-.83-.2.05-.21.14-.56.23-.91.25.07.51.14.63.17.11-.62.22-1.28.33-1.93.85.49.74,1.01.49,1.56-.1.23-.25.49-.22.72.08.5-.34,1.13.48,1.48.77.33,1.33.14,2.07-.35-.39-.07-.64-.11-.92-.15.1-.34.2-.64.32-1.03.23.16.42.29.65.45v-1.19c.36.16.7.32,1.05.47-.49,1.05-.98,2.08-1.45,3.13-.09.2-.18.52-.08.65.68.92.16,1.56-.32,2.05.93,1.03,1.85,2.04,2.76,3.05.34.38.33.79-.05,1.1-.56.45-.43.89-.13,1.41.69,1.2,1.44,2.39,1.99,3.65.26.6.27,1.4.15,2.07-.41,2.32-1.19,4.46-2.58,6.44-1.54,2.2-3.64,2.03-5.8.89.59-.58,1.06-1.21,1.67-1.62,2.41-1.62,3.29-3.96,3.51-6.76h-6.5v7.28c.16.02.4,0,.53.09.24.19.41.47.6.71-.32.08-.67.28-.95.21-.44-.11-.83-.39-1.12-.54.17-.46.43-.87.44-1.28.04-2.14.02-4.27.02-6.59h-6.74c0-.1,0-.2,0-.3h6.69v-7.84c-2.75-.55-6.53,2.93-6.98,7.47-.19-.56-.34-1.13-.58-1.67-.2-.45-.43-.92-.77-1.26-.69-.7-.91-1.29-.35-2.26.92-1.61,2.05-3,3.57-4.12-.5-.65-1.05-1.17-.48-2.23.27-.49-.41-1.53-.73-2.29-.23-.54-.57-1.02-.93-1.65.46-.03.77-.06,1.11-.08-.06.42-.12.78-.17,1.14.06.03.13.07.19.1.26-.24.51-.47.76-.71.1.3.2.61.33.99-.3.07-.56.13-.86.2.63.74,1.36.57,2.04.26.24-.11.34-.51.51-.78-.08-.08-.17-.15-.25-.23-.22.13-.43.26-.73.44-.07-.36-.14-.71-.23-1.17h1.13l-.03-.03Zm3.98,7.79v7.9c2.05,0,4.01,0,5.98,0,.13,0,.26-.03.37-.05.42-2.86-1.96-7.68-6.35-7.84Zm-.49-4.49c0,.06-.01.11-.02.17-.88,0-1.77-.06-2.65.02-.71.06-1.45.19-2.1.46-.28.12-.37.67-.55,1.03.39.14.89.52,1.16.39,2.78-1.31,5.55-1.14,8.33-.07.49.19,1.03.47,1.28-.21.24-.64-.05-1.13-.79-1.22-1.55-.2-3.11-.38-4.66-.56Z"/>
  <path class="cls-1" d="m155.52,79.54h-13.69c-.15,3.53,2.01,5.85,5.03,6.03,1.88.11,3.87-.17,4.62-1.99.84-2.06,2.29-1.35,3.65-1.48-.23,2.88-3.03,5.62-5.98,5.97-3.01.36-5.76.18-7.95-2.13-1.66-1.74-2.4-3.92-2.54-6.29-.13-2.14.07-4.22,1.16-6.16,1.52-2.69,3.7-4.21,6.87-4.27,1.85-.03,3.6.18,5.15,1.25,1.96,1.36,2.9,3.37,3.36,5.61.23,1.1.22,2.25.32,3.46Zm-3.21-2.68c-.36-3.94-2.97-5.32-6.5-4.97-2.06.21-3.92,2.59-3.83,4.97h10.33Z"/>
  <path class="cls-1" d="m231.4,79.58h-13.67c-.52,2.74,1.98,5.85,4.73,5.99,1.84.1,3.55-.15,4.78-1.74.08-.11.26-.19.27-.29.28-1.88,1.72-1.4,2.9-1.44.2,0,.4,0,.69,0-.67,2.87-2.18,4.95-5.04,5.72-3.28.88-6.46.74-8.99-1.9-1.69-1.76-2.4-3.98-2.54-6.39-.12-2.23.15-4.37,1.32-6.34,1.42-2.39,3.48-3.77,6.27-3.94,1.54-.09,3.09-.11,4.54.61,2.62,1.3,3.88,3.57,4.42,6.31.21,1.07.21,2.18.32,3.42Zm-3.23-2.72c-.11-2.7-1.87-5.38-6.35-4.99-2.14.19-4.12,2.59-3.97,4.99h10.32Z"/>
  <path class="cls-1" d="m112.79,88.23c-5.14.22-7.77-3.09-8.64-6.96-.76-3.42-.22-6.76,2.13-9.57,1.17-1.4,2.83-2.21,4.55-2.4,2.6-.29,5.22-.2,7.49,1.54,1.66,1.27,2.57,2.95,3.04,4.91.71,3.01.54,5.98-1.12,8.63-1.67,2.68-4.2,4.04-7.45,3.84Zm5.81-9.58c-.06-2.45-.66-4.53-2.78-5.98-1.77-1.21-5.27-1.09-6.9.75-2.07,2.34-2.38,7-.65,9.65,1.27,1.95,3.12,2.83,5.42,2.46,2.01-.32,3.49-1.5,4.18-3.42.4-1.1.5-2.31.74-3.46Z"/>
  <path class="cls-1" d="m249.15,88.19h-2.95v-1.29c0-3.47.02-6.94,0-10.42-.01-1.6-.37-3.06-2.04-3.79-2.44-1.07-5.81,0-6.68,2.71-.3.93-.38,1.96-.4,2.95-.05,3.26-.02,6.52-.02,9.84h-2.96v-18.09h2.74v2.59c.52-.55.88-.92,1.22-1.3,2.27-2.46,7.46-2.45,9.66.04,1.15,1.3,1.22,2.97,1.41,4.59.04.34.02.68.02,1.02,0,3.68,0,7.35,0,11.14Z"/>
  <path class="cls-1" d="m172.66,88.18h-2.99v-18.06h2.76v2.62c1.1-1.25,1.91-2.41,3.38-2.73,2.66-.58,5.24-.81,7.4,1.34,1.04,1.03,1.4,2.4,1.43,3.73.1,4.34.04,8.69.04,13.09h-2.89c0-2.93.02-5.85,0-8.76-.01-1.35-.09-2.69-.19-4.04-.15-2.21-1.67-2.92-3.37-3.05-3.2-.26-5.59,1.85-5.57,5.29.02,3.5,0,7,0,10.57Z"/>
  <path class="cls-1" d="m131.69,88.23c-.34,0-.54,0-.74,0-2.68,0-2.64,0-3.54-2.47-1.72-4.72-3.49-9.41-5.24-14.12-.18-.49-.31-1-.47-1.54h3.35c1.67,4.94,3.34,9.87,5.11,15.09.71-2.12,1.34-3.97,1.96-5.82.96-2.88,1.9-5.76,2.89-8.63.1-.28.47-.62.74-.65.81-.09,1.63-.03,2.59-.03-2.24,6.11-4.44,12.13-6.66,18.18Z"/>
  <path class="cls-1" d="m260.71,85.57v2.74c-1.61-.1-3.2-.09-4.74-.33-1.13-.18-1.75-1.18-1.76-2.34-.03-3.94-.04-7.89-.06-11.83,0-.37,0-.74,0-1.24h-3.02c-.14-.16-.18-.18-.18-.21q-.17-2.51,2.27-2.52c.27,0,.54,0,.9,0v-5.26h3v5.43h3.57v2.65h-3.55c0,.84,0,1.62,0,2.39.02,3.09.1,6.18.05,9.27-.01.98.51,1.17,1.22,1.23.74.06,1.48.01,2.29.01Z"/>
  <path class="cls-1" d="m62.34,7.12c.03-.52.04-.82.08-1.48.63.72,1.08,1.23,1.58,1.81.43.14,1.11.18,1.53.53.8.67,1.46,1.51,2.16,2.29.24.26.44.55.48.8.07,1.31.15,2.62.23,4.02-.23-.04-.5-.09-.86-.16v2.46c-.76-.25-1.35-.36-1.34.66,0,.17-.44.34-.68.51-.16-.22-.42-.42-.45-.66-.07-.54-.02-1.09-.02-1.82-.27.2-.59.44-.97.73-.33-.16-1.25.06-.71-.97-.25-.06-.53-.21-.76-.15-.27.07-.5.32-.62.4-.15-.36-.26-.62-.43-1.02.05-.15.17-.52.37-1.14-.74.51-1.25.86-1.77,1.22-.23-.51-.42-.93-.62-1.38,1.08.53,1.84-.47,2.72-.99.89-.53,2.09-.99,1.7-2.57-.58,1.96-1.93,1.66-3.3,1.14-.09.46-.15.8-.27,1.44-.2-.42-.29-.6-.35-.72-.33.41-.64.8-.94,1.18-.39-.33-.79-.67-1.32-1.11.35-.14.61-.22.84-.35.22-.13.42-.3.89-.65-.63.15-.98.21-1.31.32-.33.12-.65.29-.97.44-.49-1.08.08-1.64.81-2.14.97-.66,1.94-1.32,3-2.04-1.53-1.92-3.06-3.84-4.59-5.76.07-.07.14-.15.2-.22,2.04,1.52,3.6,3.59,5.71,5.37Z"/>
  <path class="cls-1" d="m160.99,73.6c1.36-2.74,3.4-4.31,6.64-3.92v2.85c-1.15.31-2.36.51-3.47.97-2.07.85-2.87,2.68-2.97,4.72-.15,2.95-.07,5.92-.08,8.88,0,.34,0,.67,0,1.06h-2.96v-18.05h2.57v3.35l.27.13Z"/>
  <path class="cls-1" d="m49.06,36.18c-2,1.83-4.42,1.65-6.91.91-.91-.27-1.82-.56-2.66-.98-.32-.16-.62-.76-.57-1.1.04-.27.65-.45,1.14-.76-.06-.12-.18-.4-.32-.68.79-.67,1.23-.59,2.06.09.51.41,1.18.64,1.82.85,1.82.59,3.65,1.13,5.44,1.68Zm-7.23,0c.18,0,.35.02.53.03.09-.35.19-.71.28-1.06-.33-.02-.65-.04-.98-.06.05.36.11.73.16,1.09Z"/>
  <path class="cls-1" d="m38,35.03c-1.95-1.78-3.21-3.94-3.87-6.67.6,0,1.18.08,1.72-.02.52-.09,1.01-.37,1.45-.54.37.86.7,1.87,1.22,2.76.51.87,1.03,1.86,2.36,1.82-1.78.07-2.37,1.36-2.87,2.65Z"/>
  <path class="cls-1" d="m38.49,26.94c1.29-.06,2.54-.14,3.78-.18.92-.03.93.26.77,1.17-.2,1.08-.04,2.22-.09,3.34-.02.34-.23.67-.35,1-.24-.17-.47-.35-.72-.52-.16-.11-.34-.21-.51-.3-1.39-.75-2.35-1.8-2.5-3.46-.04-.37-.26-.73-.37-1.05Zm3.29,4.21c.09-.49.05-1.02.28-1.34.54-.73.16-1.23-.26-1.75-.6-.73-1.31-.18-1.96-.11-.11.01-.3.48-.24.67.32,1.05.87,1.95,2.19,2.53Z"/>
  <path class="cls-1" d="m24.6,7.28c.14-1.23,2.03-.85,1.63-2.44.41.18.78.34,1.28.55.16-.51.3-.98.47-1.54.22.38.42.72.65,1.14.26-.39.43-.65.63-.97.44,1.6.31,1.84-1.05,2.31-.87.3-1.7.74-2.57,1.02-.32.1-.73-.05-1.05-.08Z"/>
  <path class="cls-1" d="m41.62,40.55c.33-.23.66-.47,1.11-.79v-1.77c.88.09,1.72.17,2.64.25v1.66c1.52.29,1.76.8,1.02,2.12-.24-.13-.49-.27-.9-.49.39-.04.63-.06,1.09-.1-.19-.38-.31-.92-.51-.96-.29-.05-.66.25-.98.42-.21.12-.39.27-.43.3.02-.61.1-1.2.01-1.76-.02-.12-.71-.32-.93-.2-.43.23-.76.66-.38,1.23.16.25.27.52.24.91-.46-.79-.92-1.34-1.87-.75-.03-.03-.07-.06-.11-.09Z"/>
  <path class="cls-1" d="m45.03,27.65h.61c-.25-.35-.47-.65-.6-.84.4-.06.69-.11.98-.16.13-.02.37-.09.37-.07.4,1.16,1.05.18,1.57.17.82-.01,1.52.43,1.65,1.03h-4.6s.02-.09.03-.13Z"/>
  <path class="cls-1" d="m43.44.02h1.3c-.17.34-.32.65-.55,1.11.44-.18.76-.31,1.15-.47v1.23c-.29-.12-.59-.25-1.08-.44.2.42.33.69.53,1.1-.49.05-.93.1-1.52.16.23-.41.38-.67.62-1.1-.46.09-.76.14-1.1.21V.62c.34.15.62.27,1.12.49-.2-.46-.31-.74-.47-1.1Z"/>
  <path class="cls-1" d="m45.06,29.65c.32-.28.63-.78.96-.79.87-.04,1.74.14,2.61.25,0,0-.02.28-.04.44-.46-.27-.75.85-1.32.14-.1-.12-.62.11-.95.15-.41.04-.82.05-1.23.07-.01-.09-.03-.17-.04-.26Z"/>
  <path class="cls-1" d="m39.57,22.41c.17-.29.31-.6.54-.84.05-.05.39.17.6.26.19.08.38.19.57.2.49.03.97,0,1.48.16-.34.3-.46,1.17-1.19.34-.09-.1-.59.17-.9.25-.53.13-1.07.23-1.61.34-.02-.15-.05-.3-.07-.45.26-.02.52-.03.78-.05-.07-.07-.14-.14-.21-.22Z"/>
  <path class="cls-1" d="m56.22,16.18c.06-.91.31-1.29,1.01-1.28.5,0,.89.06.85.69-.04.72-.44,1.15-1.12,1.12-.3-.02-.58-.41-.74-.53Z"/>
  <path class="cls-1" d="m45.46,4.53c-.07,1.01-.82,1.15-1.54,1.17-.68.02-1.16-.35-1.14-1.17h2.68Z"/>
  <path class="cls-1" d="m38.31,24.79c.29-.04.58-.08.9-.13-.11-.17-.21-.33-.31-.49.51-.18,1.03-.84,1.51.08.04.08.49-.1.75-.1.47,0,.95.05,1.42.21-.34.31-.49.8-1.16.33-.34-.24-1.13.21-1.73.3-.45.07-.91.06-1.37.09,0-.1-.01-.2-.02-.3Z"/>
  <path class="cls-1" d="m42.94,42.69c.49.03,1.03-.06,1.45.12,1,.43.72-.65,1.36-.73-.43.67-.79,1.4-1.33,1.97-.19.2-.93.28-1.07-.46-.06-.32-.25-.61-.39-.91l-.02.02Z"/>
  <path class="cls-1" d="m45.25,31.07c.72-.06,1.43-.13,2.14-.15.14,0,.28.23.42.35-.18.2-.33.53-.54.57-.77.15-1.57.21-2.35.3-.01-.08-.02-.17-.04-.25.2-.03.39-.05.65-.08-.08-.21-.17-.44-.28-.73Z"/>
  <path class="cls-1" d="m62.8,34.36c-.06-.64.16-1.06.86-1.07.75,0,.98.44.97,1.11,0,.66-.2,1.13-.96,1.12-.79-.01-.91-.53-.87-1.17Zm1.64.1c-.3-.34-.49-.56-.68-.78-.19.23-.52.46-.52.7,0,.25.29.51.46.77.21-.2.43-.39.75-.69Z"/>
  <path class="cls-1" d="m24.96,3.16c.16-.09.33-.13.37-.23.1-.21.14-.45.2-.68.29.25.65.46.83.77.17.29.14.69.2,1.05-.05.02-1.28-.67-1.6-.91Z"/>
  <path class="cls-1" d="m40.53,10.04c-.44-.66-.68-1.31-.01-1.98.83,1,.83,1.46-.02,1.95,0,0,.03.03.03.03Z"/>
  <path class="cls-1" d="m43.11,20.22c-.33.32-.5.58-.61.56-.62-.15-1.23-.36-1.84-.55.03-.12.06-.23.09-.35.71.1,1.42.21,2.36.34Z"/>
  <path class="cls-1" d="m44.42,42.15c-.15.07-.29.14-.44.2-.05-.13-.1-.27-.15-.4.18-.02.36-.03.53-.05.02.08.03.16.05.25Z"/>
  <path class="cls-1" d="m42.96,42.67c-.15-.15-.29-.29-.44-.44.11-.05.21-.1.32-.15.03.2.07.41.1.61l.02-.02Z"/>
  <path class="cls-1" d="m41.72,40.64c-.02.24-.03.49-.05.73-.06,0-.12-.01-.18-.02.04-.27.08-.54.12-.81.04.03.07.06.1.09Z"/>
  <path class="cls-1" d="m59.57,15.07c-.07.02-.11.04-.16.06.01-.05.01-.1.03-.14,0-.01.06-.02.08,0,.02.02.03.06.05.09Z"/>
  <path class="cls-1" d="m16.64,28.24c.03-.06.05-.12.08-.18l.07.11c-.06.02-.11.05-.17.07,0,0,.01,0,.01,0Z"/>
  <path class="cls-1" d="m46.44,21.43c1.17-.27-.02-.62.05-.93,1.06-.09,1.23.1,1.22,1.08,0,.3.25.6.33.91.06.25.03.51.04.77-.05.05-.1.1-.15.15-.62-.96-.66.69-1.24.18.14-.28.3-.58.5-.96-.32-.07-.69-.16-.93-.21,0-.3,0-.6,0-.89.06-.03.12-.07.18-.1Z"/>
  <path class="cls-1" d="m45.37,18.96c0,1.6,0,2.99,0,4.37,0,1.41.19,1.57,1.61,1.35.1-.02.2-.01.31.08-.67.11-1.33.25-2,.32-.15.01-.47-.25-.46-.39.04-1.65.11-3.3.2-4.95.01-.2.17-.4.34-.79Z"/>
  <path class="cls-1" d="m48.08,23.26l.17.34c-.11-.06-.22-.13-.33-.19.05-.05.1-.1.15-.15Z"/>
  <path class="cls-1" d="m46.11,21.36c-.07-.1-.13-.2-.2-.3.11.06.21.12.32.17-.04.04-.08.08-.12.13Z"/>
  <path class="cls-1" d="m46.23,21.23c.07.07.14.13.21.2-.06.03-.12.07-.18.1-.05-.06-.1-.11-.15-.17.04-.05.08-.09.12-.13Z"/>
</svg>