<?xml version="1.0" encoding="UTF-8"?>
<svg id="Layer_1" data-name="Layer 1" xmlns="http://www.w3.org/2000/svg" xmlns:xlink="http://www.w3.org/1999/xlink" viewBox="0 0 69.15 114.46">
  <defs>
    <style>
      .cls-1 {
        fill: none;
      }

      .cls-2 {
        clip-path: url(#clippath);
      }

      .cls-3 {
        fill: #c20000;
      }
    </style>
    <clipPath id="clippath">
      <rect class="cls-1" x="6.57" y="37.34" width="56.85" height="56.85"/>
    </clipPath>
  </defs>
  <path class="cls-3" d="m64.9,35.57v60.01H4.89v-60.01h60.01m3.41-3.41H1.48v66.82h66.82V32.17h0Z"/>
  <g>
    <g>
      <path class="cls-3" d="m7.59.12c.11,0,.18.04.24.12.05.07.05.16,0,.26l-3.12,6.29s-.06.07-.11.1-.1.04-.13.04h-1.12s-.09-.01-.14-.05c-.05-.03-.09-.07-.1-.11L.03.49c-.04-.1-.04-.18.01-.26.05-.07.13-.11.23-.11h1.94s.09.01.14.04.08.07.1.11l1.55,3.32L5.48.27s.05-.07.1-.11c.05-.03.1-.04.14-.04h1.87Z"/>
      <path class="cls-3" d="m8.26,6.83c-.07,0-.13-.03-.18-.07-.05-.05-.07-.11-.07-.18V.38c0-.07.03-.13.07-.18.05-.05.11-.07.18-.07h4.99c.07,0,.13.03.18.07.05.05.07.11.07.18v1.25c0,.07-.03.14-.07.19-.05.05-.11.07-.18.07h-2.87v.68h2.45c.07,0,.13.03.18.07.05.05.07.11.07.18v1.23c0,.07-.03.14-.07.19-.05.05-.11.07-.18.07h-2.45v.72h3.11c.07,0,.14.03.18.07.05.05.07.12.07.19v1.25c0,.07-.03.13-.07.18-.05.05-.11.07-.18.07h-5.22Z"/>
      <path class="cls-3" d="m16.53,4.46v2.11c0,.07-.03.13-.07.18-.05.05-.12.07-.19.07h-1.9c-.07,0-.13-.03-.18-.07-.05-.05-.07-.11-.07-.18V.38c0-.07.03-.13.07-.18.05-.05.11-.07.18-.07h4.29c.74,0,1.33.16,1.77.49.48.35.72.82.72,1.4,0,.65-.2,1.12-.59,1.41-.1.07-.21.14-.34.21s-.27.12-.42.18c.18.1.34.2.46.31.13.12.24.22.32.34l1.17,1.98c.05.1.06.18.01.27-.05.08-.13.12-.24.12h-2.17s-.09-.01-.13-.04-.07-.06-.1-.1l-1.1-2.04v.02s-.04-.05-.07-.09c-.03-.03-.05-.05-.08-.07-.05-.03-.22-.05-.53-.05h-.81Zm-.05-2.8v1.27h1.03c.42,0,.74-.05.95-.14.22-.1.33-.27.33-.52,0-.21-.08-.37-.25-.46s-.4-.14-.72-.14h-1.34Z"/>
      <path class="cls-3" d="m29.32.13c.12,0,.2.05.25.14s.03.19-.04.28l-2.98,3.59v2.43c0,.07-.03.13-.07.18-.05.05-.12.07-.19.07h-1.91c-.07,0-.13-.03-.18-.07-.05-.05-.07-.11-.07-.18v-2.42l-2.98-3.59c-.08-.09-.1-.18-.05-.28.05-.1.13-.14.25-.14h2.21s.07,0,.11.03c.05.02.07.04.1.06l1.74,2.15,1.58-2.13s.04-.05.1-.07.09-.03.12-.03h2.02Z"/>
      <path class="cls-3" d="m35.01,4.85h3.24c.07,0,.13.03.18.07s.08.11.08.18v1.47c0,.07-.03.13-.07.18-.05.05-.11.07-.18.07h-5.35c-.07,0-.14-.03-.19-.07-.05-.05-.07-.11-.07-.18V.38c0-.07.03-.13.07-.18.05-.05.11-.07.18-.07h1.85c.07,0,.13.03.18.07.05.05.08.11.08.18v4.47Z"/>
      <path class="cls-3" d="m45.48,6.83s-.08-.01-.13-.04-.08-.06-.1-.1l-.44-.84h-3.21l-.44.84s-.05.07-.1.1-.09.04-.14.04h-1.77c-.12,0-.2-.04-.25-.12-.05-.08-.05-.17,0-.27l3.51-6.18s.05-.07.1-.1c.05-.03.1-.04.13-.04h1.51s.08.01.13.04c.05.03.08.06.1.1l3.31,6.19c.05.1.05.18,0,.26-.05.07-.12.12-.24.12h-2Zm-3.04-2.49h1.59l-.77-1.48-.82,1.48Z"/>
      <path class="cls-3" d="m50.31,4.46v2.11c0,.07-.03.13-.07.18-.05.05-.12.07-.19.07h-1.9c-.07,0-.13-.03-.18-.07-.05-.05-.07-.11-.07-.18V.38c0-.07.03-.13.07-.18.05-.05.11-.07.18-.07h4.29c.74,0,1.33.16,1.77.49.48.35.72.82.72,1.4,0,.65-.2,1.12-.59,1.41-.1.07-.21.14-.34.21s-.27.12-.42.18c.18.1.34.2.46.31.13.12.24.22.32.34l1.17,1.98c.05.1.06.18.01.27-.05.08-.13.12-.24.12h-2.17s-.09-.01-.13-.04-.07-.06-.1-.1l-1.1-2.04v.02s-.04-.05-.07-.09c-.03-.03-.05-.05-.08-.07-.05-.03-.22-.05-.53-.05h-.81Zm-.05-2.8v1.27h1.03c.42,0,.74-.05.95-.14.22-.1.33-.27.33-.52,0-.21-.08-.37-.25-.46-.16-.1-.4-.14-.72-.14h-1.34Z"/>
      <path class="cls-3" d="m58.25,4.77c.37.31.87.46,1.51.46.51,0,.91-.05,1.17-.16v-.43h-.9c-.07,0-.14-.03-.19-.07-.05-.05-.07-.12-.07-.19v-1.13c0-.07.03-.14.07-.18.05-.05.12-.07.19-.07h2.74c.07,0,.14.03.19.07.05.05.07.11.07.18v3c0,.05-.02.1-.05.15s-.08.08-.13.1c-.42.13-.89.24-1.42.31-.53.08-1.11.12-1.73.12-1.41,0-2.49-.27-3.24-.82s-1.12-1.38-1.12-2.52.38-2,1.15-2.64c.77-.63,1.78-.95,3.02-.95.61,0,1.15.04,1.63.12.48.07.87.16,1.17.25.05.01.09.04.12.08.03.04.06.09.06.13l.14,1.19c.01.1-.02.18-.09.24s-.15.07-.25.05c-.31-.09-.68-.18-1.11-.27-.21-.04-.42-.07-.64-.1-.21-.02-.43-.03-.65-.03-.67,0-1.21.17-1.63.51-.4.34-.59.79-.59,1.35.01.53.2.95.55,1.25Z"/>
      <path class="cls-3" d="m63.67,6.83c-.07,0-.13-.03-.18-.07-.05-.05-.07-.11-.07-.18V.38c0-.07.03-.13.07-.18.05-.05.11-.07.18-.07h4.99c.07,0,.13.03.18.07.05.05.07.11.07.18v1.25c0,.07-.03.14-.07.19-.05.05-.11.07-.18.07h-2.87v.68h2.45c.07,0,.13.03.18.07.05.05.07.11.07.18v1.23c0,.07-.03.14-.07.19-.05.05-.11.07-.18.07h-2.45v.72h3.11c.07,0,.14.03.18.07.05.05.07.12.07.19v1.25c0,.07-.03.13-.07.18-.05.05-.11.07-.18.07h-5.22Z"/>
    </g>
    <g>
      <path class="cls-3" d="m6.03,11.44c.18,0,.33.06.45.18s.18.27.18.43v5.13h5.21v-5.13c0-.16.06-.31.18-.43s.27-.18.45-.18h4.5c.18,0,.33.06.45.18s.18.27.18.43v14.79c0,.16-.06.31-.18.43s-.27.18-.45.18h-4.5c-.18,0-.33-.06-.45-.18-.12-.12-.18-.27-.18-.43v-5.46h-5.21v5.46c0,.16-.06.31-.18.43s-.27.18-.45.18H1.53c-.16,0-.31-.06-.43-.18s-.18-.27-.18-.43v-14.79c0-.16.06-.31.18-.43.12-.12.27-.18.43-.18h4.5Z"/>
      <path class="cls-3" d="m29.7,12.03c0-.16.06-.31.18-.43s.27-.18.45-.18h4.21c.16,0,.31.06.43.18.12.12.18.27.18.43v10.38c0,1.98-.76,3.37-2.27,4.19-1.39.74-3.41,1.1-6.05,1.1s-4.75-.37-6.07-1.1c-1.46-.82-2.19-2.28-2.19-4.39v-10.18c0-.16.06-.31.18-.43s.27-.18.45-.18h4.19c.18,0,.33.06.45.18s.18.27.18.43v8.42c0,.94.22,1.61.67,2,.44.4,1.18.59,2.21.59.98,0,1.69-.2,2.12-.63.44-.42.65-1.09.65-2.03v-8.36h0Z"/>
      <path class="cls-3" d="m43.04,22.53c.87.74,2.08,1.1,3.62,1.1,1.23,0,2.16-.12,2.8-.37v-1.02h-2.15c-.18,0-.33-.06-.45-.18s-.18-.27-.18-.45v-2.72c0-.18.06-.32.18-.44.12-.12.27-.17.45-.17h6.54c.18,0,.33.06.45.17.12.12.18.27.18.44v7.17c0,.12-.05.25-.13.35-.09.12-.2.2-.32.24-.99.31-2.13.57-3.41.76-1.27.19-2.66.29-4.14.29-3.36,0-5.94-.65-7.72-1.95-1.78-1.3-2.68-3.3-2.68-6.02s.92-4.76,2.76-6.31c1.84-1.53,4.24-2.29,7.21-2.29,1.44,0,2.74.1,3.9.27,1.16.18,2.09.39,2.8.61.11.03.2.09.29.19s.14.21.15.32l.35,2.84c.03.23-.04.42-.2.56-.16.14-.36.18-.59.11-.74-.22-1.62-.43-2.66-.63-.5-.1-1.01-.17-1.53-.22s-1.03-.08-1.54-.08c-1.61,0-2.9.41-3.88,1.23-.94.82-1.41,1.89-1.41,3.23.01,1.26.44,2.25,1.3,2.99Z"/>
      <path class="cls-3" d="m56.04,27.45c-.16,0-.31-.06-.43-.18s-.18-.27-.18-.43v-14.79c0-.16.06-.31.18-.43s.27-.18.43-.18h11.91c.16,0,.31.06.43.18s.18.27.18.43v2.98c0,.18-.06.33-.18.45s-.27.18-.43.18h-6.87v1.63h5.86c.16,0,.31.06.43.18.12.12.18.27.18.43v2.94c0,.18-.06.33-.18.45-.12.12-.27.18-.43.18l-5.86.02v1.72h7.42c.18,0,.32.06.44.18.12.12.17.27.17.45v2.98c0,.16-.06.31-.17.43-.12.12-.27.18-.44.18h-12.46Z"/>
    </g>
    <g>
      <path class="cls-3" d="m5.76,110.67c.64.54,1.53.81,2.65.81.9,0,1.58-.09,2.05-.27v-.75h-1.57c-.13,0-.24-.05-.33-.14s-.14-.2-.14-.33v-2c0-.13.05-.24.14-.32s.2-.13.33-.13h4.79c.13,0,.24.04.33.13.09.08.14.19.14.32v5.26c0,.09-.03.18-.1.27-.07.08-.14.14-.23.17-.73.23-1.56.42-2.49.55-.93.14-1.95.21-3.03.21-2.47,0-4.35-.48-5.67-1.43-1.31-.95-1.96-2.42-1.96-4.41s.67-3.49,2.02-4.63c1.35-1.12,3.11-1.68,5.29-1.68,1.06,0,2.02.07,2.86.2.85.14,1.53.28,2.05.44.08.02.15.07.22.14s.1.15.12.23l.25,2.08c.02.17-.03.31-.15.42-.12.1-.27.13-.44.08-.54-.16-1.19-.31-1.95-.46-.37-.07-.74-.12-1.12-.16s-.75-.06-1.13-.06c-1.18,0-2.12.3-2.85.9-.69.6-1.04,1.39-1.04,2.37,0,.91.32,1.63.95,2.18Z"/>
      <path class="cls-3" d="m26.15,114.28c-.07,0-.15-.03-.23-.07-.08-.05-.14-.11-.17-.18l-.76-1.47h-5.62l-.76,1.47c-.04.07-.1.13-.18.18-.08.05-.16.07-.24.07h-3.1c-.2,0-.35-.07-.44-.21-.09-.14-.08-.29.01-.46l6.16-10.84c.03-.06.09-.12.18-.16.09-.05.16-.07.22-.07h2.65c.07,0,.14.03.22.07.08.05.14.11.18.18l5.8,10.84c.08.17.08.32,0,.46s-.22.2-.42.2h-3.5Zm-5.32-4.36h2.79l-1.35-2.61-1.44,2.61Z"/>
      <path class="cls-3" d="m46.64,102.53c.13,0,.24.05.33.14s.14.2.14.31v10.85c0,.12-.05.22-.14.31-.09.09-.2.14-.33.14h-3c-.13,0-.24-.05-.33-.14s-.14-.2-.14-.31v-5.86l-3.25,6.05c-.04.07-.1.13-.18.18-.08.05-.16.07-.22.07h-1.41c-.07,0-.14-.03-.22-.07s-.14-.11-.18-.18l-3.24-6.04v5.84c0,.12-.05.22-.14.31-.09.09-.2.14-.33.14h-3c-.13,0-.24-.05-.33-.14s-.14-.2-.14-.31v-10.85c0-.12.05-.22.14-.31.09-.09.2-.14.33-.14h3.51c.06,0,.13.02.22.07.08.05.14.1.17.16l3.92,6.37,3.88-6.37c.04-.06.1-.12.18-.16.08-.05.16-.07.22-.07h3.51Z"/>
      <path class="cls-3" d="m48.4,114.28c-.12,0-.22-.05-.31-.14s-.14-.2-.14-.31v-10.85c0-.12.05-.22.14-.31.09-.09.2-.14.31-.14h8.74c.12,0,.22.05.31.14s.14.2.14.31v2.19c0,.13-.05.24-.14.33s-.2.14-.31.14h-5.03v1.2h4.3c.12,0,.22.05.31.14s.14.2.14.31v2.16c0,.13-.05.24-.14.33s-.2.14-.31.14h-4.3v1.27h5.44c.13,0,.24.05.32.14s.13.2.13.33v2.19c0,.12-.04.22-.13.31-.08.09-.19.14-.32.14h-9.15Z"/>
      <path class="cls-3" d="m68.74,112.19c-.25.5-.59.91-1.05,1.25-.46.33-1.01.59-1.66.76-.65.18-1.39.27-2.21.27-.44,0-.88-.02-1.31-.05-.44-.03-.86-.09-1.29-.16-.1-.02-.19-.03-.27-.05-.07,0-.15-.03-.23-.05h0c-.29-.03-.54-.08-.74-.13s-.36-.07-.47-.1c-.09-.02-.17-.07-.24-.15s-.11-.16-.12-.25l-.24-2.85c-.02-.19.04-.33.18-.43.14-.1.29-.1.46-.02.49.24,1.17.52,2.04.82.9.3,1.72.45,2.45.45.45,0,.81-.05,1.09-.16.27-.11.41-.27.41-.48,0-.11-.08-.22-.24-.33-.26-.16-.85-.33-1.77-.51-1.73-.35-2.93-.8-3.6-1.36-.73-.6-1.1-1.44-1.1-2.52,0-1.26.45-2.21,1.34-2.86.89-.65,2.14-.97,3.74-.97.7,0,1.44.07,2.23.21.38.07.72.14.99.2.29.06.52.12.72.18.08.02.15.07.22.15s.1.16.12.24l.3,2.62c.02.19-.04.34-.18.44-.14.1-.29.12-.46.02-.31-.15-.63-.29-.97-.42-.34-.13-.69-.25-1.06-.36-.74-.21-1.4-.31-2-.31-.45,0-.8.03-1.04.1s-.37.19-.37.36c0,.16.12.29.37.37.23.08.51.17.84.27s.72.18,1.17.26c1.62.32,2.72.78,3.32,1.38.67.64,1,1.46,1,2.46,0,.65-.12,1.22-.37,1.72Z"/>
    </g>
  </g>
  <g class="cls-2">
    <g>
      <path class="cls-3" d="m7.38,58.58c.09.07.17.12.25.18.96.76,2.27.82,3.3.17.14-.1.29-.2.41-.33.16-.18.33-.25.58-.18.25.07.52.05.78.02.67-.08,1.25-.37,1.72-.85.07-.07.15-.15.24-.24.08.03.16.05.25.07.8.31,1.58.27,2.34-.1.08-.04.16-.13.29-.07,0,.05,0,.1-.01.16-.32,1.2-.4,2.42-.45,3.66,0,.2-.02.39-.04.59-.01.1-.04.19-.07.29-.03.1-.1.17-.2.2s-.21.06-.32.07c-.43.05-.86.1-1.3.15-.05,0-.11,0-.16,0-.52-.05-1.01.06-1.5.26-.48.2-.93.47-1.36.78-.81.61-1.49,1.33-2.05,2.17-.44.66-.58,1.38-.47,2.15.06.41.16.81.31,1.2.16.43.34.85.51,1.27.1.25.21.5.31.76.04.11.07.22.11.34.03.1,0,.2-.08.27s-.17.14-.27.19c-.38.21-.76.43-1.15.62-.83.41-1.68.79-2.51,1.19-.63.3-1.25.62-1.83,1.01-.76.52-1.52,1.06-2.23,1.65-.55.46-1.08.95-1.49,1.55-.4.57-.63,1.19-.67,1.88-.03.49-.03.98.05,1.46.05.33.14.66.32.95.07.11.14.22.24.31.4.4.92.47,1.4.18.18-.1.34-.24.51-.35.35-.22.69-.46,1.04-.67.08-.05.17-.1.26-.14.5-.25,1.01-.31,1.55-.16.49.14.98.28,1.44.53.38.21.79.36,1.22.46.79.18,1.56.13,2.3-.19.26-.11.52-.24.76-.37.18-.1.37-.12.57-.05.35.13.69.26,1.04.4.45.17.89.35,1.34.51.41.15.84.25,1.27.29.49.05.97.02,1.46-.12.74-.22,1.48-.43,2.21-.71.4-.16.78-.33,1.13-.59.11-.09.22-.18.31-.29.31-.39.38-.83.19-1.29-.14-.32-.31-.63-.47-.93-.08-.16-.18-.3-.27-.45-.05-.1-.1-.19-.15-.29-.16-.31-.17-.63-.01-.95.12-.25.24-.49.38-.72.36-.57.72-1.14,1.12-1.69.41-.56.51-1.16.39-1.83-.07-.37-.2-.74-.35-1.09-.29-.67-.64-1.31-1-1.94-.36-.63-.72-1.27-1.08-1.91-.1-.17-.2-.33-.23-.56.06-.07.14-.15.2-.23.21-.27.43-.52.62-.8.11-.16.2-.34.27-.52.29-.77.14-1.46-.4-2.06-.13-.14-.27-.28-.42-.42.04-.08.06-.15.11-.2.29-.36.5-.76.67-1.19.12-.3.24-.61.35-.91.06-.15.13-.3.2-.45.11-.22.27-.4.48-.52.33-.18.64-.37.97-.54.16-.07.33-.13.49-.16.28-.06.51.03.67.28.23.35.47.71.73,1.04.56.74,1.18,1.42,1.87,2.05,1.01.91,2.15,1.63,3.31,2.32.86.51,1.78.86,2.76,1.08.91.21,1.82.33,2.74.44.49.05.97.12,1.46.16.22.02.38.12.52.28.21.25.44.48.69.7.16.14.34.27.52.38.61.35,1.25.43,1.92.22.22-.07.42-.16.63-.26.29-.13.57-.27.86-.4.41-.18.63-.5.61-.95,0-.2-.05-.42-.11-.61-.1-.29-.21-.57-.33-.85-.25-.56-.5-1.11-.74-1.68-.16-.37-.27-.76-.41-1.14-.03-.08-.03-.16-.05-.29.27.14.48.27.72.35.25.08.51.1.78.16,0,.05.03.13.03.2.01.99.85,1.85,1.86,1.88.07,0,.15.01.24.03.01.1.02.18.03.27.05.72.4,1.25,1.03,1.6.17.1.29.22.37.39,1.41,2.79,2.29,5.74,2.63,8.85.01.1,0,.19.01.32-.05-.01-.09-.01-.12-.03-.28-.13-.56-.25-.83-.39-.4-.2-.71-.51-.95-.87-.2-.31-.39-.63-.58-.95-.31-.52-.64-1.01-1.09-1.42-.48-.44-1.04-.67-1.68-.69-.54-.01-1.06.06-1.59.19-.35.09-.67.25-.95.5-.41.37-.62.83-.63,1.39,0,.61.19,1.16.52,1.66.22.35.47.68.72,1.01.53.72,1.09,1.42,1.7,2.07.11.12.16.26.18.41.11.58.22,1.16.34,1.73.22,1.07.49,2.12.83,3.16.05.16.06.31-.01.47-.33.74-.35,1.49-.06,2.25.03.07.05.14.07.23-.07.07-.13.14-.2.21-.61.58-.91,1.29-.91,2.13,0,.05,0,.11,0,.16-.03,0-.05.03-.07.02-.45-.31-.85-.68-1.17-1.13-.1-.15-.2-.32-.25-.49-.45-1.34-.89-2.69-1.34-4.03-.05-.17-.04-.31.03-.47.2-.42.39-.83.55-1.25.35-.95.37-1.33.09-2.3-.33-1.14-.77-2.22-1.38-3.24-.16-.27-.35-.52-.57-.76-.22-.25-.49-.42-.82-.52-.43-.12-.84-.28-1.27-.42-.45-.14-.9-.26-1.37-.31-.42-.05-.82-.06-1.24.01-.5.09-.95.31-1.34.63-.54.45-1.05.95-1.57,1.44-.69.65-1.33,1.35-2,2.02-.18.18-.29.4-.32.66-.14,1.29-.22,2.58-.16,3.88.03.67.1,1.33.29,1.97.12.41.28.8.54,1.14.17.22.39.38.6.54.4.31.76.65,1.1,1.03.19.21.34.45.46.72.19.44.18.86-.01,1.29-.14.29-.31.54-.53.78-.43.48-.92.9-1.47,1.24-.73.45-1.38.99-1.95,1.63-.62.69-1.12,1.47-1.46,2.34-.38.99-.95,1.86-1.69,2.62-.63.65-1.36,1.19-2.19,1.58-.27.13-.5.3-.66.56-.14.22-.29.44-.42.67-.43.79-.76,1.61-.97,2.49-.01.06-.03.13-.05.19,0,.02-.02.04-.03.06-.11.07-.23.03-.35.02-.79-.08-1.57-.21-2.36-.37-3.35-.69-6.44-2-9.26-3.93-1.5-1.02-2.86-2.2-4.11-3.51-2.28-2.4-4.03-5.13-5.24-8.21-1.31-3.33-1.9-6.78-1.76-10.36.16-4.17,1.27-8.07,3.34-11.7.71-1.24,1.52-2.41,2.42-3.52.8-.98,1.68-1.89,2.61-2.74.4-.36.81-.69,1.22-1.04.07-.14.16-.19.27-.25Z"/>
      <path class="cls-3" d="m38.03,58.51c.01.11.03.18.03.26.03.65.35,1.16.88,1.53.03.03.07.05.11.07.17.08.22.22.2.4-.08.78.06,1.54.29,2.29.2.67.47,1.31.76,1.95.18.41.37.81.55,1.22.16.36.15.37-.2.55-.18.1-.37.18-.56.27-.46.21-.87.14-1.25-.18-.29-.25-.57-.52-.78-.82-.16-.23-.37-.37-.63-.43-.22-.05-.45-.1-.67-.13-.59-.07-1.19-.14-1.78-.2-.86-.1-1.7-.22-2.54-.44-.67-.18-1.31-.42-1.91-.76-.9-.52-1.78-1.05-2.59-1.7-.61-.48-1.18-1-1.68-1.59-.5-.58-.95-1.19-1.36-1.83-.36-.57-.9-.84-1.56-.86-.35-.01-.69.07-1.02.2-.57.22-1.1.53-1.6.87-.32.22-.57.51-.74.86-.16.33-.29.66-.43.99-.12.29-.24.59-.37.87-.2.43-.5.76-.92.98-.1.05-.18.12-.25.2-.25.3-.19.76.13.98.1.07.21.12.31.18.27.15.52.31.74.54.26.27.29.49.13.83-.13.28-.33.51-.54.74-.16.16-.32.33-.49.48-.28.25-.34.55-.18.89.22.46.44.93.67,1.38.36.66.75,1.3,1.11,1.96.25.47.49.95.72,1.43.11.24.18.49.25.74.08.31.03.59-.16.86-.42.61-.82,1.23-1.22,1.86-.2.31-.37.64-.49.99-.18.54-.18,1.07.01,1.6.14.36.33.69.52,1.01.12.2.22.4.33.6.07.15.05.21-.09.3-.1.06-.21.12-.32.16-.37.14-.73.29-1.1.41-.44.15-.9.27-1.34.41-.31.1-.62.11-.94.07-.46-.05-.9-.18-1.32-.35-.46-.18-.91-.37-1.36-.54-.23-.09-.47-.18-.71-.25-.18-.05-.36-.09-.54-.11-.27-.03-.52.01-.76.13-.2.1-.42.2-.61.31-.8.44-1.6.42-2.42.05-.08-.03-.16-.07-.24-.12-.59-.35-1.25-.52-1.9-.69-.72-.18-1.42-.12-2.1.19-.54.25-1.04.55-1.53.89-.12.08-.24.19-.41.24-.03-.05-.07-.1-.09-.16-.11-.57-.12-1.15.01-1.72.08-.38.3-.69.54-1,.34-.43.75-.8,1.18-1.13.59-.46,1.19-.89,1.78-1.32.44-.31.9-.58,1.38-.82.97-.47,1.94-.93,2.92-1.4.51-.25,1.01-.51,1.48-.82.21-.14.4-.31.57-.49.25-.26.35-.57.34-.93-.01-.29-.08-.56-.18-.82-.12-.31-.26-.63-.38-.94-.17-.42-.35-.82-.49-1.25-.1-.3-.17-.61-.22-.92-.07-.41.01-.8.25-1.16.63-.99,1.45-1.76,2.48-2.32.16-.09.33-.16.51-.22.22-.08.44-.11.67-.07.12.02.24.01.35,0,.38-.04.76-.08,1.14-.13.22-.03.46-.06.67-.12.66-.16,1.08-.59,1.27-1.24.09-.31.12-.64.14-.97.04-.69.07-1.39.14-2.08.08-.89.31-1.74.68-2.55.05-.1.1-.2.14-.29.07-.15.18-.24.33-.29.84-.32,1.38-.93,1.67-1.76.06-.18.1-.35.16-.53.03-.1.09-.15.18-.16.09-.01.17-.02.26-.02,2.1-.09,4.2.03,6.28.42,2.6.49,5.05,1.4,7.34,2.74.04.02.07.05.11.07.16.08.27.21.33.39.11.34.32.61.59.84.31.27.67.4,1.07.44.1-.01.2,0,.32,0Z"/>
      <path class="cls-3" d="m22.08,104.06c.01-.11.01-.17.03-.23.21-.69.48-1.36.84-1.98.14-.25.33-.42.58-.55.86-.43,1.61-1,2.28-1.68.83-.83,1.48-1.79,1.94-2.88.08-.19.15-.39.24-.57.25-.52.55-1.01.93-1.46.5-.59,1.06-1.1,1.72-1.5.67-.42,1.27-.91,1.8-1.49.27-.29.5-.61.69-.95.5-.92.52-1.85.06-2.79-.18-.37-.4-.69-.67-.99-.41-.46-.85-.87-1.35-1.23-.2-.14-.35-.33-.42-.57-.09-.28-.18-.57-.22-.85-.06-.43-.11-.86-.13-1.3-.04-1.02.02-2.04.12-3.06.02-.22.1-.39.25-.54.57-.57,1.12-1.16,1.7-1.72.48-.46.98-.89,1.47-1.34.29-.26.63-.37,1.01-.39.35-.01.69.03,1.04.12.38.1.75.22,1.12.33.22.07.43.16.65.22.21.06.37.17.49.35.13.2.27.4.39.6.48.87.84,1.79,1.12,2.74.14.45.12.89-.07,1.31-.2.46-.38.93-.62,1.37-.2.37-.22.7-.08,1.09.48,1.39.94,2.79,1.4,4.18.18.54.48,1,.86,1.41.34.37.74.68,1.11,1.01.05.04.1.08.15.13.07.06.1.14.06.23-.03.07-.05.14-.08.21-.33.91-.22,1.78.3,2.59.08.13.19.24.29.35.15.18.16.23,0,.43-.11.15-.22.29-.35.44-.74.91-1.54,1.78-2.4,2.59-2.21,2.1-4.73,3.74-7.58,4.83-2.01.76-4.09,1.23-6.22,1.44-1.38.14-2.76.16-4.15.14-.07,0-.17-.02-.31-.03Z"/>
      <path class="cls-3" d="m49.11,68c-.24.15-.4.37-.6.55-.19.18-.35.38-.56.53-.15-.04-.19-.16-.24-.27-.15-.35-.3-.7-.45-1.05-.1-.22-.2-.44-.3-.65-.03-.05-.04-.12-.06-.17.03-.03.04-.05.06-.05.37-.13.66-.37.93-.65.35-.36.71-.71,1.06-1.06.08-.08.16-.17.25-.27-.04-.07-.07-.12-.11-.17-.05-.07-.12-.12-.18-.18-3.52-3.52-7.04-7.04-10.56-10.56-.1-.1-.19-.21-.32-.29-.26.14-.42.37-.63.57-.2.18-.39.38-.58.58l-.62.62c-.21-.07-.4-.21-.61-.32-.21-.11-.42-.22-.63-.33-.2-.12-.44-.19-.63-.35.16-.26.44-.41.58-.67-.09-.12-.17-.23-.25-.35-.76-1.07-.62-2.52.31-3.44.93-.91,2.4-1.01,3.45-.24.1.07.19.14.29.21.14-.03.2-.14.29-.22.63-.62,1.25-1.25,1.87-1.87,3.34-3.39,8.72-3.9,12.68-1.21,4.5,3.06,5.75,9.16,2.79,13.72-.41.63-.89,1.21-1.42,1.74-.59.58-1.17,1.17-1.76,1.76-.08.08-.18.15-.23.29.06.09.14.18.2.28.69.91.79,2.39-.23,3.44-1.01,1.04-2.51,1.01-3.46.31-.11-.08-.22-.16-.33-.24Zm-6.74-14.11c.98.99,2.66,1.1,3.76,0s1.03-2.7.01-3.74c-1.03-1.04-2.7-1.08-3.76-.02-1.09,1.08-1.02,2.76-.01,3.76Zm6.64,6.64c1.04,1.05,2.71,1.05,3.76.02.99-.97,1.1-2.63.03-3.73-1.01-1.04-2.68-1.1-3.76-.04-1.1,1.08-1.02,2.75-.03,3.75Z"/>
      <path class="cls-3" d="m49.77,78.82c0-.1-.02-.18-.03-.27-.02-.31-.03-.63-.06-.95-.01-.18-.06-.36-.09-.54-.01-.07-.02-.15-.03-.22-.12-1.68-.4-3.33-.83-4.95-.02-.07-.03-.14-.05-.25.08.02.13.02.18.04,2.18.86,4.26,1.92,6.18,3.29.99.71,1.9,1.5,2.7,2.4.95,1.08,1.71,2.27,2.12,3.67.34,1.14.4,2.29.1,3.45-.34,1.31-1.06,2.38-2.12,3.21-.81.63-1.72,1.06-2.71,1.32-.58.16-1.17.25-1.77.31-.09,0-.17,0-.28,0-.05-.1-.09-.19-.14-.3.1-.1.19-.19.28-.28.94-.94,1.12-2.38.42-3.51-.12-.18-.25-.35-.4-.55.01-.04.03-.1.05-.16.24-.67.38-1.36.38-2.08,0-1.12-.49-1.99-1.4-2.63-.46-.33-.98-.56-1.53-.73-.25-.07-.5-.14-.76-.2-.07-.02-.15-.04-.24-.07Z"/>
      <path class="cls-3" d="m16.99,48.44c-.65-.58-1.38-.89-2.25-.82-.85.07-1.53.46-2.06,1.12-.1-.04-.17-.07-.25-.1,0-.05-.02-.08-.02-.11.1-1.33.41-2.6,1.08-3.77.74-1.3,1.79-2.27,3.21-2.79,1.31-.48,2.64-.48,3.98-.09,1.01.29,1.91.78,2.76,1.38.92.66,1.72,1.44,2.45,2.3,1.25,1.48,2.25,3.12,3.1,4.86.35.74.67,1.48,1,2.23.04.1.11.19.07.33-.47-.1-.93-.2-1.4-.29s-.95-.16-1.42-.23c-.48-.06-.95-.12-1.43-.16s-.95-.07-1.44-.09c-.48-.02-.95-.03-1.44-.04-.07-.11-.07-.23-.1-.35-.1-.44-.21-.86-.37-1.29-.22-.57-.5-1.09-.91-1.53-.59-.63-1.31-.96-2.17-1-.32-.01-.63,0-.95.06-.48.06-.96.15-1.44.37Z"/>
      <path class="cls-3" d="m45.42,82.8c-.05-.16-.12-.31-.16-.46-.3-1.12-.54-2.27-.75-3.41-.01-.09-.03-.17-.05-.26-.03-.26-.15-.47-.33-.66-.28-.31-.55-.61-.82-.93-.56-.67-1.08-1.36-1.57-2.09-.07-.12-.14-.25-.2-.37-.05-.1-.07-.2-.1-.31-.09-.44.07-.69.48-.82.04-.01.08-.03.13-.03.31-.04.63-.1.94-.12.42-.03.76.12,1.06.41.22.22.4.46.56.72.13.21.25.44.38.65.28.47.57.93.97,1.31.28.28.59.52.95.69.31.16.63.3.95.45.52.25.48.2.51.75.02.36.03.72.03,1.08,0,.22,0,.44-.03.63-.09.1-.19.1-.29.11-.31.05-.62.12-.91.25-.55.24-1.01.6-1.32,1.12-.18.29-.29.61-.34.95-.01.12-.03.24-.05.35,0,.01-.02.01-.03.01Z"/>
      <path class="cls-3" d="m51.66,89.58c.31.5.31,1.06,0,1.53-.32.51-.79.73-1.38.7-.11,0-.22-.03-.32-.05-1.37-.31-2.74-.63-4.11-.95-.25-.05-.48-.14-.68-.3-.9-.7-.66-1.99.1-2.4.06.03.13.05.2.1.29.17.59.27.91.35,1.38.32,2.76.63,4.13.96.37.08.74.1,1.14.06Z"/>
      <path class="cls-3" d="m12.13,50.04c-.09.51.02,1,.14,1.49.26,1.1.51,2.21.76,3.31.12.54.23,1.09.54,1.55-.02.15-.11.23-.2.31-.86.76-2.1.36-2.43-.61-.03-.1-.05-.19-.07-.29-.31-1.36-.63-2.72-.94-4.07-.1-.4-.07-.78.12-1.14.4-.74,1.33-1.01,2.08-.55Z"/>
      <path class="cls-3" d="m50.63,81.88c.01-.48-.07-.92-.05-1.4.61.2,1.12.5,1.48,1.01.17.25.25.53.26.83,0,.22,0,.46-.04.68-.03.24-.1.47-.14.7-.1.44-.36.74-.75.93-.36.18-.74.24-1.14.2-.11,0-.22-.03-.32-.05-.51-.12-1.02-.23-1.53-.35-.46-.11-.85-.32-1.17-.67-.13-.15-.23-.31-.3-.5-.2-.54-.02-1.11.46-1.44.32-.22.68-.34,1.08-.34.22,0,.46.03.68.07.4.07.78.18,1.18.27.09.03.18.05.31.07Z"/>
      <path class="cls-3" d="m21.19,51.1c-.25.04-.47,0-.69-.01-.22,0-.44-.03-.67-.04,0,.1,0,.17.02.24.1.45.2.89.31,1.33.08.35.09.72,0,1.07-.07.31-.22.59-.46.82-.35.33-.75.42-1.21.28-.38-.12-.66-.37-.89-.69-.16-.22-.27-.47-.33-.74-.13-.55-.27-1.1-.38-1.66-.11-.52-.06-1.02.2-1.48.19-.34.47-.57.85-.65.28-.06.55-.12.83-.17.1-.02.2-.02.29-.03.68-.04,1.23.2,1.64.76.21.29.38.61.48.97Z"/>
      <path class="cls-3" d="m15.95,49.39c-.03.07-.06.15-.1.21-.4.74-.48,1.53-.32,2.34.12.59.26,1.17.4,1.75.16.66.49,1.23.99,1.7.06.06.12.12.18.18,0,0,0,.02.01.03,0,.11-.07.18-.14.24-.86.78-2.12.38-2.45-.61-.03-.1-.05-.19-.07-.29-.31-1.33-.61-2.65-.92-3.98-.02-.07-.03-.15-.05-.22-.12-.63.13-1.23.66-1.55.54-.33,1.1-.32,1.63.03.03.02.07.05.1.07.03.03.03.05.07.1Z"/>
      <path class="cls-3" d="m52.3,85.74c.44.48.52,1.11.26,1.66s-.84.87-1.44.82c-.12,0-.24-.03-.35-.06-1.37-.31-2.74-.63-4.11-.95-.21-.05-.42-.12-.6-.25-.8-.53-.89-1.77-.08-2.38.01-.01.04-.01.08-.03.05.05.12.1.18.16.52.56,1.16.91,1.9,1.08.47.11.93.21,1.4.33.91.22,1.79.14,2.62-.33.05-.02.09-.03.14-.05Z"/>
      <path class="cls-3" d="m48.97,92.95c-.01.47-.25.88-.61,1.12-.37.24-.76.31-1.19.22-.55-.12-1.1-.25-1.66-.38-.27-.06-.53-.11-.8-.19-.77-.23-1.21-1.04-.99-1.81.05-.19.13-.37.28-.53.05.03.12.05.16.09.42.38.93.59,1.48.72.99.22,1.98.45,2.96.68.11.02.22.05.35.09Z"/>
      <path class="cls-3" d="m8.71,52.71c.08.12.09.24.12.35.23.99.47,1.99.69,2.99.12.54.32,1.04.69,1.46.03.04.06.09.09.13-.01.11-.1.14-.17.19-.81.46-1.83.07-2.14-.81-.03-.07-.04-.14-.06-.22-.17-.74-.34-1.48-.51-2.23-.02-.07-.03-.15-.04-.22-.09-.76.42-1.46,1.16-1.62.05-.02.12-.02.18-.02Z"/>
      <path class="cls-3" d="m47.95,64.89c-.04.06-.05.1-.07.12-.26.27-.51.53-.78.78-.44.41-1.1.39-1.5-.04-.36-.38-.39-.99-.04-1.37.28-.31.59-.59.88-.87.01-.01.04-.01.08-.03.18.12.32.3.48.46.16.15.31.31.46.46.16.16.33.33.5.5Z"/>
      <path class="cls-3" d="m37.97,54.97c.06.03.1.04.12.06.42.42.85.84,1.27,1.27.03.03.05.07.08.12-.04.05-.07.11-.12.15-.24.24-.47.48-.72.72-.43.42-1.06.42-1.46.02-.41-.4-.44-1.04-.03-1.47.27-.29.56-.57.85-.86Z"/>
      <path class="cls-3" d="m40.17,57.1c.47.46.94.93,1.4,1.41-.03.05-.04.1-.07.13-.27.27-.52.55-.81.8-.44.4-1.1.36-1.49-.08-.33-.38-.36-.97-.02-1.35.27-.31.59-.59.88-.87.02,0,.04-.01.11-.04Z"/>
      <path class="cls-3" d="m42.26,59.23c.27.21,1.26,1.21,1.42,1.42-.01.03-.03.07-.05.1-.27.27-.52.55-.8.81-.54.49-1.38.3-1.66-.36-.16-.38-.12-.76.16-1.07.27-.31.58-.59.88-.88,0,0,.03,0,.07-.03Z"/>
      <path class="cls-3" d="m44.37,61.35c.23.18,1.25,1.19,1.43,1.42-.02.04-.04.1-.07.13-.26.27-.51.54-.78.78-.59.54-1.52.26-1.72-.5-.08-.3-.03-.59.14-.84.1-.15.8-.84,1.01-.99Z"/>
    </g>
  </g>
</svg>