<?xml version="1.0" encoding="UTF-8"?>
<svg id="Layer_1" data-name="Layer 1" xmlns="http://www.w3.org/2000/svg" viewBox="0 0 150.32 43.27">
  <defs>
    <style>
      .cls-1 {
        fill: #c20000;
      }
    </style>
  </defs>
  <path class="cls-1" d="m150.27,43.26h-42.9v-.41c0-14.1,0-28.2,0-42.3,0-.17-.02-.34-.03-.54h42.89c.09.38.14,41.58.05,43.24Zm-12.05-15.69c-.4.22-.74.42-1.08.6-.93.5-1.93.84-2.96,1.06-.79.17-1.6.32-2.42.33-1.17.02-2.31-.06-3.43-.41-1.2-.37-2.19-1.07-3.01-1.97-.56-.61-.9-1.38-1.21-2.15-.39-1-.5-2.06-.55-3.12-.03-.66.03-1.33.06-2,.01-.21.05-.42.11-.62.21-.72.43-1.43.8-2.1.46-.85,1.06-1.55,1.8-2.15.16-.13.33-.26.52-.35.72-.32,1.45-.64,2.22-.83.37-.09.76-.18,1.14-.18.93,0,1.87-.11,2.81.06.52.1,1.05.15,1.56.33.54.19,1.08.36,1.61.58.47.2.91.45,1.36.68.1.05.2.11.34.19v-4.63c-.27-.13-.55-.27-.83-.39-.41-.17-.83-.32-1.25-.46-.31-.1-.63-.15-.94-.27-.83-.31-1.71-.41-2.57-.51-1.2-.14-2.42-.14-3.62.05-.52.08-1.04.2-1.56.31-.67.14-1.31.37-1.94.63-.32.13-.65.21-.95.38-.48.27-.94.57-1.41.88-.26.17-.52.33-.74.54-.56.55-1.13,1.08-1.59,1.73-.66.94-1.25,1.91-1.6,3.01-.24.75-.46,1.51-.59,2.29-.06.35-.15.71-.16,1.07-.02.83-.04,1.67.02,2.5.04.57.04,1.15.13,1.73.11.62.24,1.23.43,1.83.15.48.32.97.55,1.42.35.7.73,1.38,1.19,2.02.2.27.39.54.62.78.42.43.89.79,1.35,1.18.68.59,1.48.94,2.26,1.33.77.38,1.6.56,2.42.79.52.14,1.07.21,1.61.27.37.04.76.02,1.13.01.89-.02,1.77-.06,2.66-.08.69-.01,1.34-.19,2-.32.71-.15,1.38-.39,2.07-.63.58-.2,1.12-.47,1.64-.75v-4.66Z"/>
  <path class="cls-1" d="m96.71,43.26h-43V.02h42.94c.02.09.05.18.06.27.01.09,0,.19,0,.29,0,14.07,0,28.14,0,42.2v.48Zm-30.86-33.79v24.28c.09,0,.16.01.22.01,3.31,0,6.61.01,9.92,0,.69,0,1.38-.07,2.06-.18.83-.14,1.63-.42,2.42-.71.06-.02.14-.02.19-.05.49-.31.99-.61,1.47-.94.47-.31.83-.74,1.17-1.19.43-.57.74-1.17.9-1.87.19-.83.41-1.66.33-2.52-.02-.2-.07-.39-.09-.59-.06-.62-.23-1.22-.47-1.79-.29-.7-.82-1.24-1.31-1.8-.04-.05-.09-.1-.15-.14-.23-.13-.47-.24-.68-.39-.42-.3-.91-.48-1.36-.72-.09-.05-.19-.09-.34-.15,1.09-.53,1.93-1.24,2.5-2.24.11-.19.16-.42.26-.62.3-.6.33-1.26.41-1.91.07-.62-.06-1.24-.19-1.84-.11-.48-.29-.96-.52-1.4-.33-.63-.91-1.07-1.4-1.58-.02-.02-.03-.05-.06-.06-.37-.2-.74-.43-1.13-.59-.47-.2-.96-.35-1.45-.5-.56-.17-1.14-.25-1.71-.35-.52-.1-1.04-.16-1.56-.17-3.01,0-6.01,0-9.02,0-.13,0-.27,0-.41,0Z"/>
  <path class="cls-1" d="m43,43.27H.03v-.4c0-14.11,0-28.22,0-42.33C.03.37.01.21,0,0h32.42C35.78,0,39.14,0,42.5,0q.5,0,.5.49c0,14.13,0,28.25,0,42.38v.4ZM12.14,9.48v24.28c.08,0,.13.01.19.01,3.33,0,6.67,0,10,0,.48,0,.96-.02,1.43-.09.48-.07.96-.19,1.43-.32.6-.17,1.2-.32,1.77-.57,1.1-.48,2.04-1.2,2.75-2.18.38-.53.69-1.1.88-1.73.06-.2,0-.45.09-.63.14-.31.13-.63.15-.95.02-.65-.07-1.28-.15-1.93-.06-.48-.2-.91-.37-1.35-.25-.65-.72-1.17-1.16-1.69-.27-.32-.6-.55-1-.72-.48-.2-.93-.47-1.4-.71-.09-.05-.18-.1-.3-.18.15-.08.27-.16.39-.22.74-.37,1.31-.92,1.78-1.59.11-.15.22-.3.31-.47.27-.5.38-1.04.52-1.59.13-.53.16-1.04.12-1.56-.02-.28-.09-.55-.15-.82-.08-.36-.13-.74-.27-1.09-.17-.42-.36-.83-.66-1.18-.16-.19-.33-.39-.53-.55-.31-.27-.63-.54-.97-.77-.84-.55-1.77-.87-2.75-1.06-.39-.08-.8-.08-1.18-.19-.45-.13-.9-.16-1.36-.16-3.05,0-6.1,0-9.14,0-.13,0-.27,0-.41,0Z"/>
  <path class="cls-1" d="m70.68,29.84v-6.54c.11,0,.21-.03.31-.03,1.43,0,2.87,0,4.3,0,.29,0,.58.1.86.13.48.06.92.21,1.38.34.42.12.77.34,1.08.64.68.65.9,1.48.87,2.37-.02.69-.26,1.32-.71,1.85-.16.19-.38.34-.59.47-.73.45-1.52.73-2.39.74-1.68.01-3.35.03-5.03.04-.01,0-.02,0-.08-.03Z"/>
  <path class="cls-1" d="m70.68,19.45v-6.01c.12,0,.22-.02.33-.02,1.23,0,2.46,0,3.69,0,.8,0,1.57.23,2.26.55.65.3,1.19.83,1.24,1.65,0,.06.06.12.07.18.19,1.09-.18,2.32-1.16,3.01-.53.37-1.17.61-1.85.62-1.47.02-2.94.04-4.42.05-.04,0-.08-.01-.16-.03Z"/>
  <path class="cls-1" d="m16.96,29.89v-6.58c.09-.01.18-.03.27-.03,1.47,0,2.95-.02,4.42,0,.87.02,1.73.16,2.53.54.65.31,1.14.76,1.37,1.48.09.27.09.56.17.81.15.43,0,.83-.03,1.23-.05.64-.4,1.16-.9,1.55-.64.49-1.38.75-2.18.87-1.53.24-3.07.07-4.6.12-.34.01-.68,0-1.06,0Z"/>
  <path class="cls-1" d="m16.97,19.48v-6.04c.11,0,.21-.03.31-.03,1.24,0,2.49,0,3.73,0,.76,0,1.5.13,2.18.46.68.33,1.15.87,1.33,1.63.29,1.22.01,2.29-.9,3.13-.37.35-.88.56-1.41.68-.54.13-1.09.16-1.64.15-1.07-.01-2.13,0-3.2,0h-.42Z"/>
</svg>