<?xml version="1.0" encoding="UTF-8"?><svg id="Layer_1" xmlns="http://www.w3.org/2000/svg" viewBox="0 0 1015.5 1680"><defs><style>.cls-1{fill:#009245;}.cls-2{fill:#fff;}.cls-3{fill:#020203;}.cls-4{fill:#0d71b9;}.cls-5{fill:#2c3f4e;}.cls-6{fill:#eb5b28;}.cls-7{fill:#2b3e4d;}</style></defs><rect class="cls-7" x="42.3" y="496.5" width="931.1" height="931.1"/><path class="cls-3" d="m948.4,521.5v881.1H67.3v-881.1h881.1m50-50H17.3v981.1h981.1V471.5h0Z"/><path class="cls-4" d="m174.49,834.3c1.19.91,2.28,1.64,3.28,2.46,12.86,10.12,30.36,11.03,44.22,2.28,1.91-1.28,3.92-2.64,5.47-4.38,2.19-2.37,4.47-3.28,7.75-2.37,3.37.91,6.93.73,10.49.27,9.03-1.09,16.69-4.92,23.07-11.4,1-1,2.01-2.01,3.19-3.19,1.09.36,2.19.64,3.28,1,10.67,4.1,21.15,3.56,31.36-1.37,1.09-.55,2.1-1.73,3.83-1-.09.64,0,1.37-.18,2.1-4.29,16.05-5.38,32.46-6.02,48.96-.09,2.64-.27,5.2-.55,7.84-.18,1.28-.55,2.55-.91,3.83-.46,1.37-1.37,2.28-2.74,2.64s-2.83.82-4.29,1c-5.74.73-11.58,1.37-17.41,2.01-.73.09-1.46.09-2.19,0-7.02-.73-13.59.82-20.06,3.46-6.47,2.64-12.49,6.29-18.14,10.49-10.85,8.11-19.97,17.78-27.44,29.09-5.84,8.84-7.75,18.42-6.29,28.81.82,5.47,2.19,10.85,4.1,16.05,2.19,5.74,4.56,11.4,6.84,17.05,1.37,3.37,2.83,6.75,4.19,10.12.55,1.46,1,3.01,1.46,4.56.46,1.37,0,2.64-1.09,3.56s-2.28,1.91-3.56,2.55c-5.11,2.83-10.12,5.74-15.41,8.3-11.12,5.47-22.43,10.58-33.55,15.96-8.39,4.01-16.78,8.3-24.44,13.59-10.21,7.02-20.33,14.13-29.91,22.06-7.39,6.2-14.41,12.76-19.97,20.79-5.29,7.57-8.48,15.96-9.03,25.16-.36,6.56-.46,13.13.64,19.6.73,4.47,1.82,8.84,4.29,12.76.91,1.46,1.91,2.92,3.19,4.19,5.29,5.38,12.31,6.29,18.78,2.46,2.37-1.37,4.56-3.19,6.84-4.74,4.65-3.01,9.3-6.11,13.95-9.03,1.09-.73,2.28-1.28,3.46-1.82,6.66-3.37,13.59-4.19,20.79-2.1,6.56,1.91,13.13,3.74,19.24,7.11,5.11,2.83,10.58,4.83,16.32,6.2,10.58,2.46,20.88,1.73,30.82-2.55,3.46-1.46,6.93-3.19,10.21-4.92,2.46-1.37,4.92-1.55,7.57-.64,4.65,1.73,9.3,3.46,13.86,5.29,6.02,2.28,11.94,4.65,17.96,6.84,5.47,2.01,11.21,3.28,17.05,3.92,6.56.73,13.04.27,19.51-1.64,9.94-2.92,19.88-5.74,29.54-9.48,5.29-2.1,10.49-4.38,15.14-7.84,1.46-1.19,3.01-2.37,4.1-3.83,4.19-5.2,5.11-11.12,2.55-17.23-1.82-4.29-4.1-8.39-6.29-12.49-1.09-2.1-2.46-4.01-3.56-6.02-.73-1.28-1.37-2.55-2.01-3.92-2.1-4.19-2.28-8.39-.18-12.67,1.64-3.28,3.19-6.56,5.11-9.66,4.83-7.66,9.66-15.32,14.95-22.61,5.47-7.48,6.84-15.59,5.2-24.44-.91-5.01-2.64-9.85-4.65-14.59-3.83-9.03-8.57-17.51-13.4-25.99-4.83-8.48-9.66-16.96-14.41-25.53-1.28-2.28-2.74-4.47-3.1-7.48.82-1,1.82-2.01,2.74-3.1,2.83-3.56,5.74-7.02,8.3-10.67,1.46-2.1,2.64-4.56,3.56-7.02,3.83-10.3,1.91-19.51-5.38-27.54-1.73-1.91-3.65-3.74-5.65-5.65.55-1.09.82-2.01,1.46-2.74,3.83-4.83,6.66-10.21,9.03-15.96,1.64-4.01,3.19-8.21,4.74-12.22.82-2.01,1.73-4.01,2.74-6.02,1.46-3.01,3.56-5.29,6.47-6.93,4.38-2.37,8.57-4.92,13.04-7.2,2.1-1,4.38-1.73,6.56-2.19,3.74-.82,6.84.36,9.03,3.74,3.1,4.74,6.29,9.48,9.76,13.95,7.48,9.94,15.77,19.06,24.98,27.44,13.49,12.13,28.72,21.88,44.31,31.09,11.58,6.84,23.89,11.49,36.93,14.5,12.13,2.83,24.34,4.47,36.74,5.84,6.56.73,13.04,1.55,19.6,2.19,2.92.27,5.11,1.55,7.02,3.74,2.83,3.28,5.93,6.38,9.21,9.39,2.1,1.91,4.56,3.65,7.02,5.11,8.11,4.74,16.78,5.74,25.71,2.92,2.92-.91,5.65-2.19,8.48-3.46,3.83-1.73,7.66-3.56,11.49-5.29,5.47-2.46,8.39-6.75,8.21-12.67-.09-2.74-.64-5.56-1.46-8.11-1.28-3.83-2.83-7.66-4.47-11.4-3.28-7.48-6.75-14.86-9.94-22.43-2.1-5.01-3.65-10.12-5.47-15.23-.36-1.09-.36-2.19-.64-3.83,3.56,1.82,6.47,3.65,9.66,4.74,3.28,1.09,6.84,1.37,10.49,2.1.09.73.36,1.73.36,2.64.18,13.31,11.4,24.71,24.89,25.16,1,0,2.01.18,3.19.36.18,1.28.27,2.37.36,3.56.73,9.66,5.38,16.78,13.77,21.43,2.28,1.28,3.83,2.92,5.01,5.2,18.87,37.38,30.64,76.86,35.19,118.44.18,1.28.09,2.55.18,4.29-.73-.18-1.19-.18-1.55-.36-3.74-1.73-7.48-3.37-11.12-5.2-5.38-2.64-9.48-6.84-12.76-11.67-2.74-4.1-5.2-8.39-7.75-12.67-4.1-6.93-8.57-13.59-14.59-18.96-6.38-5.84-13.86-9.03-22.52-9.21-7.2-.18-14.22.82-21.24,2.55-4.74,1.19-9.03,3.37-12.67,6.66-5.47,5.01-8.3,11.12-8.39,18.6-.09,8.11,2.55,15.5,6.93,22.25,3.01,4.65,6.29,9.12,9.57,13.59,7.11,9.66,14.59,18.96,22.7,27.72,1.46,1.64,2.1,3.46,2.46,5.47,1.46,7.75,2.92,15.5,4.56,23.16,3.01,14.31,6.56,28.45,11.12,42.31.73,2.19.82,4.1-.18,6.29-4.47,9.94-4.74,19.97-.82,30.18.36.91.64,1.91,1,3.1-.91.91-1.73,1.91-2.64,2.83-8.21,7.75-12.13,17.32-12.13,28.54,0,.73-.09,1.46-.09,2.1-.36.09-.73.36-.91.27-6.02-4.19-11.4-9.12-15.68-15.14-1.37-2.01-2.64-4.29-3.37-6.56-6.02-17.96-11.94-36.01-17.96-53.98-.73-2.28-.55-4.1.46-6.29,2.64-5.56,5.2-11.12,7.39-16.78,4.74-12.67,4.92-17.78,1.19-30.73-4.38-15.23-10.3-29.72-18.42-43.4-2.19-3.65-4.74-7.02-7.57-10.12-3.01-3.28-6.56-5.65-10.94-6.93-5.74-1.64-11.31-3.74-17.05-5.56-6.02-1.91-12.04-3.46-18.33-4.19-5.56-.73-11.03-.82-16.59.18-6.75,1.19-12.67,4.1-17.96,8.48-7.29,6.02-14.04,12.76-20.97,19.24-9.3,8.66-17.78,18.05-26.71,27.08-2.46,2.46-3.83,5.29-4.29,8.84-1.91,17.23-3.01,34.56-2.19,51.97.46,8.94,1.37,17.78,3.83,26.35,1.55,5.47,3.74,10.67,7.29,15.32,2.28,2.92,5.2,5.11,8.02,7.29,5.38,4.1,10.21,8.75,14.68,13.77,2.55,2.83,4.56,6.02,6.11,9.57,2.55,5.84,2.46,11.58-.18,17.32-1.82,3.83-4.19,7.29-7.11,10.49-5.74,6.47-12.31,12.04-19.69,16.59-9.76,6.02-18.42,13.31-26.08,21.88-8.3,9.3-15.04,19.69-19.51,31.36-5.11,13.22-12.76,24.89-22.61,35.1-8.48,8.75-18.24,15.96-29.27,21.15-3.65,1.73-6.75,4.01-8.84,7.48-1.82,3.01-3.83,5.84-5.56,8.94-5.74,10.58-10.12,21.61-12.95,33.37-.18.82-.46,1.73-.64,2.55-.09.27-.27.55-.46.82-1.46,1-3.1.46-4.65.27-10.58-1.09-21.06-2.83-31.55-4.92-44.86-9.21-86.16-26.81-124-52.61-20.06-13.68-38.29-29.45-55.07-47.05-30.54-32.09-53.88-68.66-70.11-109.87-17.51-44.59-25.44-90.81-23.61-138.68,2.19-55.8,17.05-108.04,44.68-156.64,9.48-16.59,20.33-32.28,32.46-47.14,10.76-13.13,22.43-25.26,34.92-36.74,5.11-5.65,10.67-10.12,16.14-14.77,1.09-.91,2.37-1.55,3.74-2.46Z"/><path class="cls-1" d="m584.69,833.29c.18,1.46.36,2.46.46,3.46.46,8.75,4.65,15.5,11.76,20.51.46.36,1,.64,1.46.91,2.28,1.09,2.92,2.92,2.64,5.38-1.09,10.49.82,20.61,3.83,30.64,2.64,8.94,6.29,17.6,10.12,26.08,2.46,5.47,5.01,10.85,7.39,16.32,2.1,4.83,2.01,5.01-2.64,7.39-2.46,1.28-4.92,2.46-7.48,3.65-6.11,2.83-11.67,1.82-16.69-2.37-3.92-3.28-7.57-6.93-10.49-11.03-2.19-3.1-4.92-4.92-8.48-5.74-3.01-.73-6.02-1.37-9.03-1.73-7.93-1-15.96-1.82-23.89-2.74-11.49-1.37-22.79-3.01-34.01-5.93-8.94-2.37-17.51-5.56-25.53-10.21-12.04-6.93-23.89-14.04-34.74-22.7-8.11-6.47-15.77-13.4-22.52-21.34-6.66-7.75-12.76-15.86-18.24-24.53-4.83-7.66-12.04-11.21-20.88-11.58-4.74-.18-9.3.91-13.68,2.64-7.66,3.01-14.68,7.11-21.43,11.67-4.29,2.92-7.66,6.84-9.85,11.49-2.1,4.38-3.83,8.84-5.74,13.22-1.64,3.92-3.19,7.84-4.92,11.67-2.64,5.74-6.66,10.21-12.31,13.13-1.28.64-2.46,1.55-3.37,2.64-3.37,4.01-2.55,10.12,1.73,13.13,1.28.91,2.83,1.55,4.19,2.37,3.56,2.01,7.02,4.19,9.85,7.2,3.46,3.65,3.92,6.56,1.73,11.12-1.73,3.74-4.38,6.84-7.2,9.85-2.1,2.19-4.29,4.38-6.56,6.47-3.74,3.37-4.56,7.39-2.46,11.85,2.92,6.2,5.84,12.4,9.03,18.42,4.83,8.84,10.03,17.41,14.86,26.26,3.37,6.29,6.56,12.67,9.57,19.15,1.46,3.19,2.37,6.56,3.28,9.94,1.09,4.1.36,7.84-2.19,11.58-5.65,8.11-10.94,16.5-16.32,24.89-2.64,4.19-4.92,8.57-6.56,13.31-2.46,7.2-2.46,14.31.18,21.43,1.82,4.83,4.47,9.21,7.02,13.59,1.55,2.64,3.01,5.29,4.38,8.02,1,2.01.73,2.83-1.19,4.01-1.37.82-2.83,1.64-4.29,2.19-4.92,1.91-9.76,3.83-14.77,5.47-5.93,2.01-12.04,3.56-17.96,5.47-4.1,1.28-8.3,1.46-12.58.91-6.11-.73-12.04-2.46-17.69-4.65-6.11-2.37-12.13-4.92-18.24-7.29-3.1-1.19-6.29-2.37-9.48-3.37-2.37-.73-4.83-1.19-7.29-1.46-3.56-.46-7.02.18-10.21,1.73-2.74,1.37-5.56,2.64-8.21,4.1-10.67,5.84-21.43,5.65-32.37.64-1.09-.46-2.19-.91-3.19-1.55-7.93-4.65-16.69-6.93-25.44-9.21-9.66-2.46-19.06-1.55-28.17,2.55-7.2,3.28-13.86,7.39-20.42,11.85-1.64,1.09-3.19,2.55-5.47,3.19-.46-.73-1-1.37-1.19-2.19-1.46-7.66-1.55-15.41.18-22.98,1.09-5.11,4.01-9.3,7.2-13.4,4.56-5.74,10.03-10.67,15.77-15.14,7.84-6.11,15.86-11.85,23.89-17.69,5.84-4.19,12.04-7.75,18.42-10.94,12.95-6.29,25.99-12.49,39.02-18.69,6.84-3.28,13.59-6.84,19.88-10.94,2.83-1.82,5.29-4.1,7.66-6.56,3.28-3.46,4.74-7.57,4.56-12.4-.18-3.83-1.09-7.48-2.46-11.03-1.64-4.19-3.46-8.39-5.11-12.58-2.28-5.56-4.65-11.03-6.56-16.69-1.37-4.01-2.28-8.11-3.01-12.31-1-5.47.18-10.67,3.28-15.5,8.39-13.22,19.42-23.52,33.19-31,2.19-1.19,4.47-2.1,6.84-2.92,2.92-1.09,5.93-1.46,9.03-1,1.55.27,3.19.18,4.74,0,5.11-.55,10.12-1.09,15.23-1.73,3.01-.36,6.11-.82,9.03-1.55,8.84-2.19,14.41-7.84,16.96-16.59,1.19-4.19,1.55-8.57,1.82-12.95.55-9.3,1-18.6,1.91-27.9,1.09-11.85,4.19-23.25,9.12-34.1.64-1.37,1.28-2.64,1.91-3.92.91-2.01,2.37-3.19,4.38-3.92,11.21-4.29,18.42-12.49,22.34-23.61.82-2.37,1.37-4.74,2.1-7.11.36-1.28,1.19-2.01,2.46-2.19,1.19-.18,2.28-.27,3.46-.27,28.17-1.19,56.26.36,84.06,5.56,34.83,6.56,67.65,18.69,98.2,36.74.55.27,1,.64,1.46.91,2.19,1.09,3.56,2.83,4.38,5.2,1.46,4.56,4.29,8.21,7.93,11.31,4.1,3.56,8.94,5.38,14.31,5.93,1.37-.18,2.64,0,4.29.09Z"/><path class="cls-1" d="m371.15,1443.08c.18-1.46.18-2.28.46-3.1,2.83-9.21,6.38-18.14,11.31-26.44,1.91-3.28,4.38-5.65,7.75-7.39,11.49-5.74,21.61-13.4,30.54-22.43,11.12-11.12,19.88-23.98,25.99-38.57,1.09-2.55,2.01-5.2,3.19-7.66,3.28-7.02,7.39-13.59,12.4-19.51,6.66-7.84,14.22-14.68,22.98-20.06,9.03-5.56,17.05-12.13,24.16-19.97,3.56-3.92,6.66-8.11,9.21-12.76,6.66-12.31,6.93-24.71.82-37.29-2.37-4.92-5.38-9.3-9.03-13.31-5.47-6.11-11.4-11.67-18.05-16.5-2.74-1.91-4.65-4.47-5.65-7.57-1.19-3.74-2.37-7.57-2.92-11.4-.82-5.74-1.46-11.58-1.73-17.41-.55-13.68.27-27.35,1.55-41.03.27-2.92,1.28-5.2,3.37-7.29,7.57-7.66,14.95-15.59,22.7-23.07,6.38-6.2,13.13-11.94,19.69-17.96,3.83-3.46,8.48-5.01,13.59-5.2,4.74-.18,9.3.36,13.86,1.55,5.11,1.37,10.03,2.92,15.04,4.47,2.92.91,5.74,2.1,8.75,2.92,2.83.82,5.01,2.28,6.56,4.74,1.73,2.64,3.65,5.29,5.2,8.02,6.47,11.67,11.21,23.98,14.95,36.74,1.82,6.02,1.55,11.85-.91,17.51-2.64,6.2-5.11,12.49-8.3,18.33-2.74,4.92-2.92,9.39-1.09,14.59,6.38,18.6,12.58,37.29,18.69,55.98,2.37,7.2,6.38,13.4,11.49,18.87,4.56,4.92,9.85,9.12,14.86,13.49.64.55,1.37,1.09,2.01,1.73,1,.82,1.37,1.91.82,3.1-.36.91-.73,1.91-1.09,2.83-4.38,12.22-3.01,23.8,4.01,34.74,1.09,1.73,2.55,3.19,3.83,4.74,2.01,2.46,2.1,3.1.09,5.74-1.46,2.01-3.01,3.92-4.65,5.84-9.94,12.22-20.61,23.8-32.09,34.65-29.63,28.17-63.28,50.06-101.48,64.64-26.9,10.21-54.71,16.41-83.24,19.24-18.42,1.82-36.93,2.19-55.53,1.82-1,0-2.28-.18-4.1-.36Z"/><path class="cls-6" d="m733.03,960.48c-3.19,2.01-5.38,4.92-8.02,7.39-2.55,2.37-4.74,5.11-7.48,7.11-2.01-.55-2.55-2.1-3.19-3.56-2.01-4.65-4.01-9.39-6.02-14.04-1.28-2.92-2.74-5.84-4.01-8.75-.36-.73-.55-1.55-.82-2.28.36-.36.55-.64.82-.73,4.92-1.73,8.84-4.92,12.4-8.66,4.65-4.83,9.48-9.48,14.22-14.22,1.09-1.09,2.19-2.28,3.37-3.56-.55-.91-.91-1.64-1.46-2.28-.73-.91-1.64-1.64-2.46-2.46-47.14-47.14-94.18-94.18-141.32-141.32-1.28-1.28-2.55-2.83-4.29-3.83-3.46,1.91-5.65,5.01-8.39,7.66-2.64,2.46-5.2,5.11-7.75,7.75l-8.3,8.3c-2.83-.91-5.38-2.83-8.21-4.29-2.83-1.46-5.65-2.92-8.48-4.47-2.74-1.55-5.84-2.55-8.48-4.65,2.1-3.46,5.84-5.47,7.75-9.03-1.19-1.55-2.28-3.1-3.37-4.65-10.12-14.31-8.3-33.74,4.19-46.04,12.49-12.22,32.09-13.59,46.14-3.19,1.28.91,2.55,1.91,3.83,2.83,1.82-.36,2.74-1.82,3.83-2.92,8.39-8.3,16.78-16.69,25.07-25.07,44.77-45.31,116.71-52.24,169.77-16.14,60.27,41.03,76.95,122.63,37.38,183.72-5.47,8.48-11.94,16.14-19.06,23.25-7.84,7.75-15.68,15.68-23.52,23.52-1.09,1.09-2.46,2.01-3.1,3.92.82,1.19,1.82,2.46,2.74,3.74,9.3,12.13,10.58,32-3.1,46.04-13.59,13.95-33.64,13.49-46.32,4.1-1.46-1.09-2.92-2.1-4.38-3.19Zm-90.26-189.01c13.13,13.31,35.56,14.77,50.33,0,14.22-14.22,13.77-36.2.18-50.06-13.77-13.95-36.11-14.41-50.33-.27-14.59,14.41-13.68,36.93-.18,50.33Zm88.9,88.99c13.86,14.04,36.29,14.04,50.33.27,13.22-13.04,14.77-35.19.36-49.96-13.49-13.95-35.83-14.77-50.33-.55-14.77,14.41-13.68,36.84-.36,50.24Z"/><path class="cls-6" d="m741.88,1105.36c-.09-1.28-.27-2.46-.36-3.56-.27-4.19-.46-8.48-.82-12.67-.18-2.46-.82-4.83-1.19-7.29-.18-1-.27-2.01-.36-3.01-1.64-22.43-5.29-44.59-11.12-66.28-.27-.91-.36-1.91-.64-3.37,1.09.27,1.73.27,2.37.55,29.18,11.58,57.08,25.71,82.79,44.04,13.22,9.48,25.44,20.06,36.2,32.19,12.76,14.41,22.89,30.45,28.45,49.14,4.56,15.23,5.38,30.64,1.28,46.23-4.56,17.51-14.22,31.82-28.45,42.94-10.85,8.48-23.07,14.13-36.29,17.69-7.75,2.1-15.68,3.37-23.71,4.1-1.19.09-2.28.09-3.74.09-.64-1.28-1.19-2.55-1.82-4.01,1.37-1.37,2.55-2.55,3.74-3.74,12.58-12.58,14.95-31.91,5.65-47.05-1.55-2.46-3.37-4.74-5.29-7.39.18-.55.36-1.37.64-2.19,3.19-9.03,5.11-18.24,5.11-27.81,0-15.04-6.56-26.62-18.69-35.19-6.2-4.47-13.13-7.48-20.42-9.76-3.37-1-6.75-1.82-10.12-2.74-.91-.27-2.01-.64-3.19-.91Z"/><path class="cls-6" d="m303.05,698.54c-8.66-7.75-18.51-11.94-30.09-11.03-11.4.91-20.51,6.11-27.63,15.04-1.28-.55-2.28-1-3.28-1.37-.09-.64-.27-1.09-.27-1.46,1.28-17.78,5.47-34.83,14.41-50.42,9.94-17.41,23.98-30.36,42.94-37.38,17.6-6.47,35.38-6.38,53.25-1.19,13.49,3.92,25.62,10.39,36.93,18.51,12.31,8.84,22.98,19.33,32.73,30.82,16.78,19.79,30.18,41.76,41.49,65.1,4.74,9.85,9.03,19.88,13.4,29.91.55,1.28,1.46,2.55,1,4.38-6.29-1.37-12.49-2.74-18.78-3.92s-12.67-2.19-18.96-3.1c-6.38-.82-12.76-1.55-19.15-2.1s-12.76-.91-19.24-1.19c-6.38-.27-12.76-.36-19.24-.55-.91-1.46-1-3.1-1.37-4.65-1.28-5.84-2.83-11.58-4.92-17.23-2.92-7.57-6.66-14.59-12.22-20.51-7.84-8.48-17.51-12.86-28.99-13.4-4.29-.18-8.48.09-12.67.82-6.38.82-12.86,2.1-19.33,4.92Z"/><path class="cls-1" d="m683.61,1158.61c-.73-2.1-1.55-4.1-2.1-6.2-4.01-15.04-7.29-30.36-10.03-45.68-.18-1.19-.46-2.28-.64-3.46-.36-3.46-2.01-6.29-4.38-8.84-3.74-4.1-7.39-8.21-11.03-12.49-7.48-8.94-14.5-18.24-20.97-27.99-1-1.55-1.91-3.28-2.74-5.01-.64-1.28-1-2.74-1.37-4.19-1.19-5.84.91-9.3,6.47-11.03.55-.18,1.09-.36,1.73-.46,4.19-.55,8.39-1.28,12.58-1.55,5.56-.36,10.21,1.55,14.22,5.47,2.92,2.92,5.38,6.11,7.48,9.66,1.73,2.83,3.37,5.84,5.11,8.66,3.74,6.29,7.66,12.4,12.95,17.6,3.74,3.74,7.93,6.93,12.67,9.21,4.19,2.1,8.48,4.01,12.67,6.02,7.02,3.37,6.38,2.64,6.84,10.03.27,4.83.36,9.57.46,14.41.09,2.92.09,5.84-.46,8.39-1.19,1.37-2.55,1.28-3.83,1.46-4.19.64-8.3,1.64-12.22,3.37-7.39,3.19-13.49,8.02-17.69,15.04-2.37,3.92-3.92,8.11-4.56,12.67-.18,1.55-.46,3.19-.73,4.74-.09.18-.27.18-.46.18Z"/><path class="cls-6" d="m767.04,1249.24c4.1,6.66,4.1,14.13.09,20.51-4.29,6.84-10.58,9.76-18.51,9.39-1.46-.09-2.92-.46-4.29-.73-18.33-4.19-36.65-8.48-54.98-12.67-3.28-.73-6.38-1.91-9.12-4.01-12.04-9.39-8.84-26.62,1.28-32.09.82.36,1.73.73,2.64,1.28,3.83,2.28,7.93,3.65,12.22,4.65,18.42,4.29,36.93,8.48,55.34,12.86,5.01,1.09,10.03,1.37,15.32.82Z"/><path class="cls-6" d="m237.85,720.05c-1.19,6.84.27,13.4,1.82,19.97,3.46,14.77,6.84,29.54,10.21,44.31,1.64,7.29,3.1,14.59,7.29,20.7-.27,2.01-1.46,3.1-2.64,4.19-11.58,10.21-28.17,4.83-32.55-8.11-.46-1.28-.73-2.55-1-3.83-4.19-18.14-8.39-36.38-12.58-54.52-1.28-5.29-1-10.39,1.55-15.32,5.38-10.03,17.87-13.49,27.9-7.39Z"/><path class="cls-6" d="m753.45,1146.3c.18-6.47-.91-12.31-.73-18.69,8.21,2.74,15.04,6.66,19.88,13.49,2.28,3.28,3.37,7.11,3.46,11.12.09,3.01-.09,6.11-.55,9.12-.46,3.19-1.28,6.29-1.91,9.39-1.28,5.84-4.83,9.85-10.03,12.49-4.83,2.37-9.94,3.19-15.32,2.64-1.46-.09-2.92-.36-4.29-.73-6.84-1.55-13.68-3.1-20.42-4.74-6.11-1.46-11.4-4.29-15.68-9.03-1.73-2.01-3.1-4.19-4.01-6.66-2.74-7.29-.27-14.86,6.11-19.33,4.29-3.01,9.12-4.56,14.41-4.56,3.01,0,6.11.36,9.12,1,5.29,1,10.49,2.37,15.77,3.56,1.09.36,2.46.55,4.19.91Z"/><path class="cls-6" d="m359.3,734.09c-3.28.55-6.29-.09-9.3-.18-2.92-.09-5.84-.36-9.03-.55.09,1.28.09,2.28.27,3.19,1.37,6.02,2.74,11.94,4.1,17.87,1.09,4.74,1.19,9.57,0,14.31-1,4.19-2.92,7.93-6.11,10.94-4.65,4.47-10.03,5.65-16.14,3.74-5.11-1.55-8.84-4.92-11.85-9.21-2.1-3.01-3.65-6.29-4.47-9.94-1.73-7.39-3.56-14.77-5.11-22.16-1.46-6.93-.82-13.68,2.74-19.88,2.55-4.56,6.29-7.66,11.4-8.75,3.74-.82,7.39-1.55,11.12-2.28,1.28-.27,2.64-.27,3.92-.36,9.12-.55,16.5,2.74,21.97,10.21,2.83,3.92,5.11,8.11,6.47,13.04Z"/><path class="cls-6" d="m289.19,711.3c-.46,1-.82,2.01-1.37,2.83-5.29,9.94-6.47,20.51-4.29,31.36,1.55,7.84,3.46,15.68,5.38,23.43,2.19,8.84,6.56,16.41,13.22,22.7.82.82,1.64,1.64,2.46,2.46.09.09.09.27.18.46,0,1.46-.91,2.37-1.91,3.19-11.49,10.39-28.45,5.11-32.73-8.21-.36-1.28-.73-2.55-1-3.83-4.1-17.78-8.21-35.47-12.31-53.25-.27-1-.46-2.01-.64-3.01-1.55-8.39,1.73-16.41,8.84-20.79,7.29-4.47,14.68-4.29,21.88.36.46.27,1,.64,1.37,1,.36.46.46.73.91,1.28Z"/><path class="cls-6" d="m775.79,1197.81c5.84,6.47,7.02,14.86,3.46,22.16s-11.21,11.67-19.24,11.03c-1.55-.09-3.19-.46-4.74-.82-18.33-4.19-36.65-8.48-54.98-12.67-2.83-.64-5.56-1.64-8.02-3.28-10.67-7.11-11.85-23.71-1.09-31.91.18-.18.55-.18,1.09-.36.73.64,1.64,1.28,2.37,2.1,7.02,7.48,15.5,12.13,25.44,14.41,6.29,1.46,12.49,2.83,18.69,4.29,12.22,2.92,23.98,1.82,35.1-4.38.64-.09,1.19-.27,1.91-.55Z"/><path class="cls-6" d="m731.21,1294.46c-.18,6.29-3.28,11.76-8.21,15.04-4.92,3.19-10.21,4.19-15.86,2.92-7.39-1.64-14.77-3.37-22.16-5.11-3.56-.82-7.11-1.46-10.67-2.55-10.3-3.1-16.14-13.86-13.31-24.25.73-2.55,1.73-4.92,3.74-7.11.73.36,1.55.64,2.19,1.19,5.65,5.11,12.4,7.93,19.88,9.57,13.22,2.92,26.44,6.02,39.66,9.12,1.46.27,2.92.73,4.74,1.19Z"/><path class="cls-6" d="m192.27,755.7c1.09,1.55,1.19,3.19,1.55,4.74,3.1,13.31,6.29,26.62,9.21,40.03,1.64,7.2,4.29,13.86,9.3,19.51.46.55.82,1.19,1.19,1.73-.18,1.46-1.28,1.91-2.28,2.55-10.85,6.11-24.53.91-28.63-10.85-.36-1-.55-1.91-.82-2.92-2.28-9.94-4.56-19.88-6.84-29.81-.27-1-.46-2.01-.55-3.01-1.19-10.21,5.56-19.6,15.5-21.7.64-.27,1.55-.18,2.37-.27Z"/><path class="cls-2" d="m717.53,918.82c-.55.82-.73,1.28-1,1.55-3.46,3.56-6.84,7.11-10.49,10.49-5.93,5.47-14.68,5.2-20.06-.55-4.83-5.11-5.2-13.22-.55-18.33,3.74-4.1,7.84-7.84,11.76-11.67.18-.18.55-.18,1.09-.46,2.37,1.64,4.29,4.01,6.38,6.11,2.1,2.01,4.1,4.1,6.2,6.2,2.19,2.1,4.38,4.29,6.66,6.66Z"/><path class="cls-2" d="m583.87,785.97c.82.46,1.37.55,1.64.82,5.65,5.65,11.4,11.31,17.05,16.96.36.36.64.91,1.09,1.55-.55.73-1,1.46-1.55,2.01-3.19,3.19-6.29,6.47-9.57,9.57-5.74,5.56-14.13,5.65-19.6.27-5.47-5.29-5.84-13.86-.46-19.69,3.56-3.83,7.48-7.57,11.4-11.49Z"/><path class="cls-2" d="m613.32,814.51c6.29,6.2,12.58,12.49,18.78,18.87-.36.73-.55,1.37-.91,1.73-3.56,3.65-7.02,7.39-10.85,10.76-5.84,5.38-14.77,4.83-19.97-1.09-4.47-5.11-4.83-12.95-.27-18.05,3.65-4.1,7.84-7.84,11.76-11.67.18-.18.55-.18,1.46-.55Z"/><path class="cls-2" d="m641.4,843.05c3.56,2.83,16.87,16.23,18.96,19.06-.18.46-.36,1-.73,1.37-3.56,3.65-7.02,7.39-10.76,10.85-7.2,6.56-18.51,4.01-22.25-4.83-2.19-5.11-1.64-10.12,2.1-14.31,3.65-4.1,7.75-7.84,11.76-11.76,0-.18.36-.18.91-.36Z"/><path class="cls-2" d="m669.66,871.4c3.1,2.37,16.69,15.86,19.15,19.06-.27.55-.55,1.28-1,1.73-3.46,3.56-6.84,7.2-10.49,10.49-7.84,7.2-20.33,3.46-22.98-6.75-1.09-4.01-.36-7.84,1.82-11.31,1.28-2.01,10.76-11.31,13.49-13.22Z"/><path class="cls-5" d="m642.77,771.48c-13.49-13.4-14.41-35.92.18-50.33,14.22-14.13,36.56-13.68,50.33.27,13.59,13.77,14.04,35.74-.18,50.06-14.77,14.86-37.2,13.31-50.33,0Z"/><path class="cls-5" d="m731.66,860.46c-13.31-13.4-14.41-35.83.36-50.33,14.5-14.22,36.74-13.4,50.33.55,14.31,14.77,12.86,36.93-.36,49.96-14.04,13.86-36.47,13.77-50.33-.18Z"/><path class="cls-2" d="m948.4,521.5v881.1H67.3v-881.1h881.1m50-50H17.3v981.1h981.1V471.5h0Z"/><path class="cls-2" d="m111.7,1.8c1.6,0,2.7.6,3.5,1.7.7,1.1.7,2.4.1,3.8l-45.8,92.4c-.3.6-.9,1.1-1.6,1.5s-1.4.6-1.9.6h-16.4c-.6,0-1.3-.2-2-.7-.8-.5-1.3-1-1.5-1.6L.7,7.2C.1,5.7.1,4.5.9,3.4c.8-1.1,1.9-1.6,3.4-1.6h28.5c.7,0,1.3.2,2,.6s1.2,1,1.5,1.6l22.7,48.7L80.8,4c.3-.6.7-1.1,1.4-1.6.8-.4,1.5-.6,2.1-.6h27.4Z"/><path class="cls-2" d="m121.6,100.3c-1,0-1.9-.4-2.6-1.1-.8-.8-1.1-1.6-1.1-2.6V5.6c0-1,.4-1.9,1.1-2.6.8-.8,1.6-1.1,2.6-1.1h73.2c1,0,1.9.4,2.6,1.1.8.8,1.1,1.6,1.1,2.6v18.4c0,1.1-.4,2-1.1,2.8-.8.8-1.6,1.1-2.6,1.1h-42.2v10h36c1,0,1.9.4,2.6,1.1.8.8,1.1,1.6,1.1,2.6v18.1c0,1.1-.4,2-1.1,2.8-.8.8-1.6,1.1-2.6,1.1l-36,.1v10.5h45.6c1.1,0,2,.4,2.7,1.1.7.8,1.1,1.7,1.1,2.8v18.3c0,1-.4,1.9-1.1,2.6-.7.8-1.6,1.1-2.7,1.1h-76.6v.2Z"/><path class="cls-2" d="m243,65.5v31c0,1-.4,1.9-1.1,2.6-.8.8-1.7,1.1-2.8,1.1h-27.9c-1,0-1.9-.4-2.6-1.1-.8-.8-1.1-1.6-1.1-2.6V5.6c0-1,.4-1.9,1.1-2.6.8-.8,1.6-1.1,2.6-1.1h63c10.8,0,19.5,2.4,26,7.2,7,5.2,10.5,12,10.5,20.5,0,9.5-2.9,16.4-8.7,20.7-1.4,1.1-3.1,2.1-5,3.1s-4,1.8-6.2,2.6c2.7,1.4,5,3,6.8,4.6,1.9,1.7,3.5,3.3,4.7,5l17.2,29c.8,1.4.9,2.7.2,4-.7,1.2-1.9,1.8-3.5,1.8h-31.9c-.7,0-1.3-.2-1.9-.6s-1.1-.9-1.4-1.5l-16.1-29.9.1.3c-.3-.4-.7-.8-1.1-1.3-.4-.4-.8-.8-1.2-1-.7-.5-3.3-.8-7.8-.8h-11.9v-.1Zm-.7-41.1v18.7h15.1c6.1,0,10.8-.7,13.9-2.1,3.2-1.4,4.8-4,4.8-7.7,0-3.1-1.2-5.4-3.6-6.8s-5.9-2.1-10.5-2.1h-19.7Z"/><path class="cls-2" d="m430.8,1.9c1.8,0,3,.7,3.7,2.1s.5,2.8-.6,4.1l-43.7,52.7v35.7c0,1-.4,1.9-1.1,2.6-.8.8-1.7,1.1-2.8,1.1h-28.1c-1,0-1.9-.4-2.6-1.1-.8-.8-1.1-1.6-1.1-2.6v-35.6l-43.8-52.7c-1.2-1.3-1.4-2.7-.7-4.1.7-1.4,1.9-2.1,3.7-2.1h32.5c.4,0,1,.1,1.6.4.7.3,1.1.6,1.4.9l25.5,31.5,23.2-31.3c.2-.4.6-.8,1.4-1.1s1.3-.5,1.8-.5c0,0,29.7,0,29.7,0Z"/><path class="cls-2" d="m514.3,71.2h47.5c1,0,1.9.4,2.7,1.1s1.2,1.6,1.2,2.7v21.6c0,1-.4,1.9-1.1,2.6-.8.8-1.6,1.1-2.6,1.1h-78.5c-1.1,0-2-.4-2.8-1.1-.8-.8-1.1-1.6-1.1-2.6V5.6c0-1,.4-1.9,1.1-2.6.7-.8,1.6-1.1,2.7-1.1h27.2c1,0,1.9.4,2.7,1.1.8.8,1.2,1.6,1.2,2.6l-.2,65.6Z"/><path class="cls-2" d="m668.1,100.3c-.6,0-1.2-.2-1.9-.6s-1.2-.9-1.4-1.5l-6.4-12.3h-47.1l-6.4,12.3c-.3.6-.8,1.1-1.5,1.5s-1.3.6-2,.6h-26c-1.7,0-2.9-.6-3.6-1.8-.8-1.2-.7-2.5.1-3.9L623.5,3.8c.3-.5.8-1,1.5-1.4.8-.4,1.4-.6,1.9-.6h22.1c.6,0,1.2.2,1.9.6.7.4,1.2.9,1.5,1.5l48.6,90.9c.7,1.4.7,2.7,0,3.8-.7,1.1-1.8,1.7-3.5,1.7h-29.4Zm-44.6-36.5h23.3l-11.3-21.8-12,21.8Z"/><path class="cls-2" d="m739,65.5v31c0,1-.4,1.9-1.1,2.6-.8.8-1.7,1.1-2.8,1.1h-27.9c-1,0-1.9-.4-2.6-1.1-.8-.8-1.1-1.6-1.1-2.6V5.6c0-1,.4-1.9,1.1-2.6.8-.8,1.6-1.1,2.6-1.1h63c10.8,0,19.5,2.4,26,7.2,7,5.2,10.5,12,10.5,20.5,0,9.5-2.9,16.4-8.7,20.7-1.4,1.1-3.1,2.1-5,3.1s-4,1.8-6.2,2.6c2.7,1.4,5,3,6.8,4.6,1.9,1.7,3.5,3.3,4.7,5l17.2,29c.8,1.4.9,2.7.2,4-.7,1.2-1.9,1.8-3.5,1.8h-31.9c-.7,0-1.3-.2-1.9-.6s-1.1-.9-1.4-1.5l-16.1-29.9.1.3c-.3-.4-.7-.8-1.1-1.3-.4-.4-.8-.8-1.2-1-.7-.5-3.3-.8-7.8-.8h-11.9v-.1Zm-.7-41.1v18.7h15.1c6.1,0,10.8-.7,13.9-2.1,3.2-1.4,4.8-4,4.8-7.7,0-3.1-1.2-5.4-3.6-6.8-2.4-1.4-5.9-2.1-10.5-2.1h-19.7Z"/><path class="cls-2" d="m855.5,70c5.4,4.5,12.8,6.8,22.2,6.8,7.5,0,13.3-.8,17.2-2.3v-6.3h-13.2c-1.1,0-2-.4-2.8-1.1-.8-.8-1.1-1.7-1.1-2.8v-16.6c0-1.1.4-2,1.1-2.7.8-.7,1.7-1.1,2.8-1.1h40.2c1.1,0,2,.4,2.8,1.1.8.7,1.1,1.6,1.1,2.7v44.1c0,.8-.3,1.5-.8,2.2s-1.2,1.2-1.9,1.4c-6.1,1.9-13.1,3.5-20.9,4.6-7.8,1.2-16.3,1.8-25.4,1.8-20.7,0-36.5-4-47.5-12s-16.4-20.3-16.4-37,5.6-29.3,16.9-38.8c11.3-9.3,26.1-14,44.3-14,8.9,0,16.9.6,24,1.7,7.1,1.1,12.8,2.4,17.2,3.7.7.2,1.3.6,1.8,1.2.5.6.9,1.3.9,1.9l2.1,17.4c.2,1.4-.3,2.6-1.3,3.5s-2.2,1.1-3.6.7c-4.5-1.3-10-2.6-16.3-3.9-3.1-.6-6.2-1-9.4-1.4-3.1-.3-6.3-.5-9.5-.5-9.9,0-17.8,2.5-23.9,7.5-5.8,5-8.7,11.6-8.7,19.8.2,7.8,2.9,13.9,8.1,18.4Z"/><path class="cls-2" d="m935.1,100.3c-1,0-1.9-.4-2.6-1.1-.8-.8-1.1-1.6-1.1-2.6V5.6c0-1,.4-1.9,1.1-2.6.8-.8,1.6-1.1,2.6-1.1h73.2c1,0,1.9.4,2.6,1.1.8.8,1.1,1.6,1.1,2.6v18.4c0,1.1-.4,2-1.1,2.8-.8.8-1.6,1.1-2.6,1.1h-42.2v10h36c1,0,1.9.4,2.6,1.1.8.8,1.1,1.6,1.1,2.6v18.1c0,1.1-.4,2-1.1,2.8-.8.8-1.6,1.1-2.6,1.1l-36,.1v10.5h45.6c1.1,0,2,.4,2.7,1.1.7.8,1.1,1.7,1.1,2.8v18.3c0,1-.4,1.9-1.1,2.6-.7.8-1.6,1.1-2.7,1.1h-76.6v.2Z"/><path class="cls-2" d="m88.8,167.9c2.6,0,4.8.9,6.6,2.7s2.7,3.9,2.7,6.3v75.3h76.5v-75.3c0-2.4.9-4.5,2.7-6.3s4-2.7,6.6-2.7h66c2.6,0,4.8.9,6.6,2.7s2.7,3.9,2.7,6.3v217.2c0,2.4-.9,4.5-2.7,6.3s-4,2.7-6.6,2.7h-66c-2.6,0-4.8-.9-6.6-2.7-1.8-1.8-2.7-3.9-2.7-6.3v-80.1h-76.5v80.1c0,2.4-.9,4.5-2.7,6.3s-4,2.7-6.6,2.7H22.8c-2.4,0-4.5-.9-6.3-2.7s-2.7-3.9-2.7-6.3v-217.2c0-2.4.9-4.5,2.7-6.3,1.8-1.8,3.9-2.7,6.3-2.7h66Z"/><path class="cls-2" d="m436.3,176.6c0-2.4.9-4.5,2.7-6.3s4-2.7,6.6-2.7h61.8c2.4,0,4.5.9,6.3,2.7,1.8,1.8,2.7,3.9,2.7,6.3v152.4c0,29-11.1,49.5-33.3,61.5-20.4,10.8-50,16.2-88.8,16.2s-69.7-5.4-89.1-16.2c-21.4-12-32.1-33.5-32.1-64.5v-149.4c0-2.4.9-4.5,2.7-6.3s4-2.7,6.6-2.7h61.5c2.6,0,4.8.9,6.6,2.7s2.7,3.9,2.7,6.3v123.6c0,13.8,3.2,23.6,9.8,29.4,6.5,5.8,17.3,8.7,32.5,8.7,14.4,0,24.8-3,31.2-9.2,6.4-6.1,9.6-16,9.6-29.8v-122.7h0Z"/><path class="cls-2" d="m632.2,330.8c12.8,10.8,30.5,16.2,53.1,16.2,18,0,31.7-1.8,41.1-5.4v-15h-31.5c-2.6,0-4.8-.9-6.6-2.7s-2.7-4-2.7-6.6v-39.9c0-2.6.9-4.7,2.7-6.5,1.8-1.7,4-2.5,6.6-2.5h96c2.6,0,4.8.9,6.6,2.5,1.8,1.7,2.7,3.9,2.7,6.5v105.3c0,1.8-.7,3.6-1.9,5.2-1.3,1.7-2.9,2.9-4.7,3.5-14.6,4.6-31.3,8.3-50,11.1-18.7,2.8-39,4.2-60.8,4.2-49.4,0-87.2-9.5-113.4-28.6s-39.3-48.5-39.3-88.4,13.5-69.9,40.5-92.7c27-22.4,62.3-33.6,105.9-33.6,21.2,0,40.3,1.4,57.3,4,17,2.7,30.7,5.7,41.1,8.9,1.6.4,3,1.3,4.3,2.8s2,3.1,2.2,4.7l5.1,41.7c.4,3.4-.6,6.1-3,8.2-2.4,2.1-5.3,2.7-8.7,1.6-10.8-3.2-23.8-6.3-39-9.3-7.4-1.4-14.9-2.5-22.4-3.3s-15.1-1.2-22.6-1.2c-23.6,0-42.6,6-57,18-13.8,12-20.7,27.8-20.7,47.4.2,18.5,6.5,33.1,19.1,43.9Z"/><path class="cls-2" d="m823.1,403.1c-2.4,0-4.5-.9-6.3-2.7s-2.7-3.9-2.7-6.3v-217.2c0-2.4.9-4.5,2.7-6.3s3.9-2.7,6.3-2.7h174.9c2.4,0,4.5.9,6.3,2.7s2.7,3.9,2.7,6.3v43.8c0,2.6-.9,4.8-2.7,6.6s-3.9,2.7-6.3,2.7h-100.8v24h86.1c2.4,0,4.5.9,6.3,2.7,1.8,1.8,2.7,3.9,2.7,6.3v43.2c0,2.6-.9,4.8-2.7,6.6-1.8,1.8-3.9,2.7-6.3,2.7l-86.1.3v25.2h108.9c2.6,0,4.7.9,6.5,2.7,1.7,1.8,2.5,4,2.5,6.6v43.8c0,2.4-.9,4.5-2.5,6.3-1.7,1.8-3.9,2.7-6.5,2.7h-183Z"/><path class="cls-2" d="m84.9,1624.9c9.4,7.9,22.4,11.9,38.9,11.9,13.2,0,23.2-1.3,30.1-4v-11h-23.1c-1.9,0-3.5-.7-4.8-2s-2-2.9-2-4.8v-29.3c0-1.9.7-3.5,2-4.7s2.9-1.9,4.8-1.9h70.4c1.9,0,3.5.6,4.8,1.9,1.3,1.2,2,2.8,2,4.7v77.2c0,1.3-.5,2.6-1.4,3.9-1,1.2-2.1,2.1-3.4,2.5-10.7,3.4-22.9,6.1-36.6,8.1-13.7,2.1-28.6,3.1-44.5,3.1-36.2,0-63.9-7-83.2-21-19.2-14-28.8-35.6-28.8-64.8s9.9-51.3,29.7-68c19.8-16.4,45.7-24.6,77.7-24.6,15.5,0,29.6,1,42,3,12.5,2,22.5,4.1,30.1,6.5,1.2.3,2.2,1,3.2,2.1s1.5,2.2,1.7,3.4l3.7,30.6c.3,2.5-.4,4.5-2.2,6.1-1.8,1.5-3.9,1.9-6.4,1.2-7.9-2.3-17.5-4.6-28.6-6.8-5.4-1-10.9-1.8-16.4-2.4s-11-.9-16.6-.9c-17.3,0-31.2,4.4-41.8,13.2-10.1,8.8-15.2,20.4-15.2,34.8.1,13.3,4.7,24,13.9,32Z"/><path class="cls-2" d="m384.2,1677.9c-1,0-2.2-.4-3.4-1.1-1.2-.7-2.1-1.6-2.5-2.6l-11.2-21.6h-82.5l-11.2,21.6c-.6,1-1.5,1.9-2.6,2.6-1.2.7-2.3,1.1-3.5,1.1h-45.5c-2.9,0-5.1-1-6.4-3.1-1.3-2.1-1.2-4.3.2-6.8l90.4-159.1c.4-.9,1.3-1.7,2.6-2.4,1.3-.7,2.4-1.1,3.3-1.1h38.9c1,0,2.1.4,3.3,1.1,1.2.7,2.1,1.6,2.6,2.6l85.1,159.1c1.2,2.5,1.2,4.7,0,6.7s-3.2,3-6.2,3h-51.4Zm-78.1-64h40.9l-19.8-38.3-21.1,38.3Z"/><path class="cls-2" d="m685.1,1505.4c1.9,0,3.5.7,4.8,2s2,2.9,2,4.6v159.3c0,1.8-.7,3.3-2,4.6-1.3,1.3-2.9,2-4.8,2h-44c-1.9,0-3.5-.7-4.8-2s-2-2.9-2-4.6v-86l-47.7,88.9c-.6,1-1.5,1.9-2.6,2.6-1.2.7-2.3,1.1-3.3,1.1h-20.7c-1,0-2.1-.4-3.3-1.1s-2.1-1.6-2.6-2.6l-47.5-88.7v85.8c0,1.8-.7,3.3-2,4.6-1.3,1.3-2.9,2-4.8,2h-44c-1.9,0-3.5-.7-4.8-2s-2-2.9-2-4.6v-159.3c0-1.8.7-3.3,2-4.6,1.3-1.3,2.9-2,4.8-2h51.5c.9,0,1.9.3,3.2,1,1.2.7,2.1,1.4,2.5,2.3l57.6,93.5,57-93.5c.6-.9,1.5-1.7,2.6-2.3,1.2-.7,2.3-1,3.3-1h51.6Z"/><path class="cls-2" d="m710.9,1677.9c-1.8,0-3.3-.7-4.6-2s-2-2.9-2-4.6v-159.3c0-1.8.7-3.3,2-4.6,1.3-1.3,2.9-2,4.6-2h128.3c1.8,0,3.3.7,4.6,2s2,2.9,2,4.6v32.1c0,1.9-.7,3.5-2,4.8s-2.9,2-4.6,2h-73.9v17.6h63.1c1.8,0,3.3.7,4.6,2s2,2.9,2,4.6v31.7c0,1.9-.7,3.5-2,4.8s-2.9,2-4.6,2l-63.1.2v18.5h79.9c1.9,0,3.5.7,4.7,2s1.9,2.9,1.9,4.8v32.1c0,1.8-.6,3.3-1.9,4.6-1.2,1.3-2.8,2-4.7,2h-134.3v.1Z"/><path class="cls-2" d="m1009.5,1647.2c-3.6,7.3-8.7,13.3-15.4,18.3-6.7,4.9-14.8,8.7-24.4,11.2-9.6,2.6-20.4,3.9-32.5,3.9-6.5,0-12.9-.3-19.2-.8-6.4-.5-12.7-1.3-19-2.3-1.5-.3-2.8-.5-3.9-.7-1.1-.1-2.2-.4-3.4-.7v.2c-4.3-.7-7.9-1.4-10.9-2.1s-5.3-1.1-6.9-1.4c-1.3-.3-2.5-1-3.5-2.2s-1.6-2.4-1.8-3.7l-3.5-41.8c-.3-2.8.6-4.9,2.6-6.3,2.1-1.4,4.3-1.5,6.8-.3,7.2,3.5,17.2,7.6,29.9,12.1,13.2,4.4,25.2,6.6,35.9,6.6,6.6,0,11.9-.8,16-2.4,4-1.6,6-4,6-7,0-1.6-1.2-3.2-3.5-4.8-3.8-2.3-12.5-4.8-26-7.5-25.4-5.1-43-11.8-52.8-20-10.7-8.8-16.1-21.1-16.1-37,0-18.5,6.6-32.5,19.7-42,13.1-9.5,31.4-14.3,54.9-14.3,10.3,0,21.2,1,32.8,3.1,5.6,1,10.5,2,14.6,2.9,4.2.9,7.7,1.8,10.5,2.6,1.2.3,2.2,1,3.2,2.2s1.5,2.3,1.7,3.5l4.4,38.5c.3,2.8-.6,5-2.6,6.5-2.1,1.5-4.3,1.7-6.8.3-4.5-2.2-9.3-4.3-14.3-6.2-5-1.9-10.2-3.7-15.6-5.3-10.9-3.1-20.6-4.6-29.3-4.6-6.6,0-11.7.5-15.3,1.5s-5.4,2.8-5.4,5.3c0,2.3,1.8,4.2,5.5,5.5,3.4,1.2,7.5,2.5,12.3,3.9s10.6,2.7,17.2,3.8c23.8,4.7,40,11.4,48.8,20.2,9.8,9.4,14.7,21.4,14.7,36.1,0,9.5-1.8,17.9-5.4,25.2Z"/></svg>